<svg version="1.2" preserveAspectRatio="xMidYMid meet" height="51" viewBox="0 0 104.88 38.249999" zoomAndPan="magnify" width="140" xmlns:xlink="http://www.w3.org/1999/xlink" xmlns="http://www.w3.org/2000/svg"><defs></defs><g id="0e4016de68"><g style="fill:#000000;fill-opacity:1;"><g transform="translate(2.706185, 22.736773)"><path d="M 8.421875 -1.96875 C 8.648438 -1.96875 8.828125 -1.90625 8.953125 -1.78125 C 9.085938 -1.65625 9.15625 -1.484375 9.15625 -1.265625 L 9.15625 0 L 0.65625 0 L 0.65625 -0.703125 C 0.65625 -0.847656 0.679688 -1 0.734375 -1.15625 C 0.796875 -1.3125 0.894531 -1.453125 1.03125 -1.578125 L 4.796875 -5.359375 C 5.109375 -5.671875 5.390625 -5.972656 5.640625 -6.265625 C 5.890625 -6.554688 6.097656 -6.84375 6.265625 -7.125 C 6.429688 -7.414062 6.554688 -7.707031 6.640625 -8 C 6.734375 -8.300781 6.78125 -8.613281 6.78125 -8.9375 C 6.78125 -9.238281 6.734375 -9.5 6.640625 -9.71875 C 6.554688 -9.945312 6.4375 -10.140625 6.28125 -10.296875 C 6.125 -10.453125 5.9375 -10.566406 5.71875 -10.640625 C 5.5 -10.710938 5.25 -10.75 4.96875 -10.75 C 4.71875 -10.75 4.484375 -10.710938 4.265625 -10.640625 C 4.054688 -10.578125 3.867188 -10.476562 3.703125 -10.34375 C 3.535156 -10.21875 3.394531 -10.066406 3.28125 -9.890625 C 3.164062 -9.722656 3.082031 -9.535156 3.03125 -9.328125 C 2.925781 -9.066406 2.796875 -8.894531 2.640625 -8.8125 C 2.492188 -8.726562 2.273438 -8.707031 1.984375 -8.75 L 0.859375 -8.953125 C 0.953125 -9.546875 1.117188 -10.066406 1.359375 -10.515625 C 1.609375 -10.960938 1.914062 -11.335938 2.28125 -11.640625 C 2.65625 -11.941406 3.078125 -12.164062 3.546875 -12.3125 C 4.023438 -12.46875 4.539062 -12.546875 5.09375 -12.546875 C 5.664062 -12.546875 6.1875 -12.457031 6.65625 -12.28125 C 7.132812 -12.113281 7.539062 -11.875 7.875 -11.5625 C 8.21875 -11.257812 8.484375 -10.890625 8.671875 -10.453125 C 8.859375 -10.023438 8.953125 -9.539062 8.953125 -9 C 8.953125 -8.550781 8.882812 -8.128906 8.75 -7.734375 C 8.613281 -7.347656 8.429688 -6.976562 8.203125 -6.625 C 7.984375 -6.269531 7.722656 -5.925781 7.421875 -5.59375 C 7.117188 -5.257812 6.800781 -4.921875 6.46875 -4.578125 L 3.671875 -1.71875 C 3.941406 -1.800781 4.207031 -1.863281 4.46875 -1.90625 C 4.738281 -1.945312 4.992188 -1.96875 5.234375 -1.96875 Z M 8.421875 -1.96875" style="stroke:none"></path></g></g><g style="fill:#000000;fill-opacity:1;"><g transform="translate(12.658621, 22.736773)"><path d="M 6.109375 -4.671875 L 6.109375 -8.734375 C 6.109375 -9.117188 6.132812 -9.539062 6.1875 -10 L 2.328125 -4.671875 Z M 9.515625 -4.671875 L 9.515625 -3.453125 C 9.515625 -3.335938 9.476562 -3.238281 9.40625 -3.15625 C 9.332031 -3.070312 9.222656 -3.03125 9.078125 -3.03125 L 7.953125 -3.03125 L 7.953125 0 L 6.109375 0 L 6.109375 -3.03125 L 0.875 -3.03125 C 0.726562 -3.03125 0.597656 -3.070312 0.484375 -3.15625 C 0.378906 -3.25 0.316406 -3.359375 0.296875 -3.484375 L 0.0625 -4.5625 L 5.9375 -12.40625 L 7.953125 -12.40625 L 7.953125 -4.671875 Z M 9.515625 -4.671875" style="stroke:none"></path></g></g><g style="fill:#000000;fill-opacity:1;"><g transform="translate(22.611058, 22.736773)"><path d="" style="stroke:none"></path></g></g><g style="fill:#000000;fill-opacity:1;"><g transform="translate(26.780785, 22.736773)"><path d="M 7.984375 -10.140625 C 7.921875 -10.023438 7.847656 -9.941406 7.765625 -9.890625 C 7.691406 -9.835938 7.597656 -9.8125 7.484375 -9.8125 C 7.359375 -9.8125 7.222656 -9.851562 7.078125 -9.9375 C 6.941406 -10.03125 6.773438 -10.128906 6.578125 -10.234375 C 6.390625 -10.335938 6.164062 -10.429688 5.90625 -10.515625 C 5.644531 -10.609375 5.335938 -10.65625 4.984375 -10.65625 C 4.660156 -10.65625 4.378906 -10.617188 4.140625 -10.546875 C 3.898438 -10.472656 3.695312 -10.363281 3.53125 -10.21875 C 3.375 -10.082031 3.253906 -9.914062 3.171875 -9.71875 C 3.085938 -9.53125 3.046875 -9.320312 3.046875 -9.09375 C 3.046875 -8.800781 3.128906 -8.554688 3.296875 -8.359375 C 3.460938 -8.171875 3.675781 -8.007812 3.9375 -7.875 C 4.207031 -7.738281 4.515625 -7.613281 4.859375 -7.5 C 5.203125 -7.394531 5.550781 -7.28125 5.90625 -7.15625 C 6.269531 -7.03125 6.625 -6.882812 6.96875 -6.71875 C 7.3125 -6.5625 7.617188 -6.359375 7.890625 -6.109375 C 8.160156 -5.859375 8.375 -5.550781 8.53125 -5.1875 C 8.695312 -4.832031 8.78125 -4.398438 8.78125 -3.890625 C 8.78125 -3.328125 8.679688 -2.800781 8.484375 -2.3125 C 8.296875 -1.820312 8.019531 -1.394531 7.65625 -1.03125 C 7.289062 -0.664062 6.835938 -0.378906 6.296875 -0.171875 C 5.765625 0.0351562 5.160156 0.140625 4.484375 0.140625 C 4.085938 0.140625 3.695312 0.0976562 3.3125 0.015625 C 2.925781 -0.0546875 2.554688 -0.160156 2.203125 -0.296875 C 1.859375 -0.441406 1.53125 -0.613281 1.21875 -0.8125 C 0.90625 -1.019531 0.628906 -1.25 0.390625 -1.5 L 1.078125 -2.59375 C 1.128906 -2.675781 1.203125 -2.742188 1.296875 -2.796875 C 1.390625 -2.847656 1.488281 -2.875 1.59375 -2.875 C 1.726562 -2.875 1.878906 -2.816406 2.046875 -2.703125 C 2.210938 -2.585938 2.410156 -2.457031 2.640625 -2.3125 C 2.867188 -2.175781 3.132812 -2.046875 3.4375 -1.921875 C 3.75 -1.804688 4.117188 -1.75 4.546875 -1.75 C 5.203125 -1.75 5.707031 -1.90625 6.0625 -2.21875 C 6.425781 -2.53125 6.609375 -2.976562 6.609375 -3.5625 C 6.609375 -3.882812 6.523438 -4.148438 6.359375 -4.359375 C 6.203125 -4.566406 5.988281 -4.738281 5.71875 -4.875 C 5.445312 -5.019531 5.140625 -5.140625 4.796875 -5.234375 C 4.453125 -5.328125 4.101562 -5.429688 3.75 -5.546875 C 3.394531 -5.660156 3.046875 -5.796875 2.703125 -5.953125 C 2.367188 -6.117188 2.066406 -6.328125 1.796875 -6.578125 C 1.523438 -6.835938 1.304688 -7.160156 1.140625 -7.546875 C 0.984375 -7.929688 0.90625 -8.410156 0.90625 -8.984375 C 0.90625 -9.429688 0.992188 -9.867188 1.171875 -10.296875 C 1.347656 -10.734375 1.609375 -11.113281 1.953125 -11.4375 C 2.296875 -11.769531 2.71875 -12.035156 3.21875 -12.234375 C 3.726562 -12.441406 4.304688 -12.546875 4.953125 -12.546875 C 5.691406 -12.546875 6.367188 -12.429688 6.984375 -12.203125 C 7.597656 -11.972656 8.125 -11.648438 8.5625 -11.234375 Z M 7.984375 -10.140625" style="stroke:none"></path></g></g><g style="fill:#000000;fill-opacity:1;"><g transform="translate(36.072565, 22.736773)"><path d="M 3.171875 -12.75 L 3.171875 -5.453125 L 3.5625 -5.453125 C 3.707031 -5.453125 3.816406 -5.46875 3.890625 -5.5 C 3.972656 -5.539062 4.0625 -5.617188 4.15625 -5.734375 L 6.34375 -8.4375 C 6.425781 -8.550781 6.523438 -8.640625 6.640625 -8.703125 C 6.753906 -8.765625 6.898438 -8.796875 7.078125 -8.796875 L 9.015625 -8.796875 L 6.28125 -5.53125 C 6.082031 -5.269531 5.867188 -5.070312 5.640625 -4.9375 C 5.765625 -4.851562 5.875 -4.753906 5.96875 -4.640625 C 6.0625 -4.523438 6.148438 -4.398438 6.234375 -4.265625 L 9.171875 0 L 7.25 0 C 7.09375 0 6.953125 -0.0234375 6.828125 -0.078125 C 6.703125 -0.128906 6.601562 -0.226562 6.53125 -0.375 L 4.28125 -3.71875 C 4.195312 -3.84375 4.113281 -3.925781 4.03125 -3.96875 C 3.945312 -4.007812 3.816406 -4.03125 3.640625 -4.03125 L 3.171875 -4.03125 L 3.171875 0 L 1.046875 0 L 1.046875 -12.75 Z M 3.171875 -12.75" style="stroke:none"></path></g></g><g style="fill:#000000;fill-opacity:1;"><g transform="translate(45.244251, 22.736773)"><path d="M 3.25 -8.796875 L 3.25 0 L 1.109375 0 L 1.109375 -8.796875 Z M 3.53125 -11.359375 C 3.53125 -11.179688 3.492188 -11.007812 3.421875 -10.84375 C 3.347656 -10.6875 3.25 -10.546875 3.125 -10.421875 C 3 -10.304688 2.851562 -10.210938 2.6875 -10.140625 C 2.519531 -10.066406 2.34375 -10.03125 2.15625 -10.03125 C 1.976562 -10.03125 1.804688 -10.066406 1.640625 -10.140625 C 1.472656 -10.210938 1.328125 -10.304688 1.203125 -10.421875 C 1.085938 -10.546875 0.992188 -10.6875 0.921875 -10.84375 C 0.859375 -11.007812 0.828125 -11.179688 0.828125 -11.359375 C 0.828125 -11.554688 0.859375 -11.734375 0.921875 -11.890625 C 0.992188 -12.054688 1.085938 -12.195312 1.203125 -12.3125 C 1.328125 -12.4375 1.472656 -12.535156 1.640625 -12.609375 C 1.804688 -12.679688 1.976562 -12.71875 2.15625 -12.71875 C 2.34375 -12.71875 2.519531 -12.679688 2.6875 -12.609375 C 2.851562 -12.535156 3 -12.4375 3.125 -12.3125 C 3.25 -12.195312 3.347656 -12.054688 3.421875 -11.890625 C 3.492188 -11.734375 3.53125 -11.554688 3.53125 -11.359375 Z M 3.53125 -11.359375" style="stroke:none"></path></g></g><g style="fill:#000000;fill-opacity:1;"><g transform="translate(49.602732, 22.736773)"><path d="M 3.03125 -7.71875 C 3.207031 -7.894531 3.394531 -8.054688 3.59375 -8.203125 C 3.789062 -8.359375 4 -8.488281 4.21875 -8.59375 C 4.4375 -8.707031 4.671875 -8.789062 4.921875 -8.84375 C 5.171875 -8.90625 5.445312 -8.9375 5.75 -8.9375 C 6.226562 -8.9375 6.648438 -8.851562 7.015625 -8.6875 C 7.390625 -8.53125 7.703125 -8.300781 7.953125 -8 C 8.203125 -7.707031 8.390625 -7.359375 8.515625 -6.953125 C 8.648438 -6.546875 8.71875 -6.09375 8.71875 -5.59375 L 8.71875 0 L 6.59375 0 L 6.59375 -5.59375 C 6.59375 -6.132812 6.46875 -6.550781 6.21875 -6.84375 C 5.976562 -7.144531 5.609375 -7.296875 5.109375 -7.296875 C 4.742188 -7.296875 4.398438 -7.210938 4.078125 -7.046875 C 3.753906 -6.878906 3.453125 -6.648438 3.171875 -6.359375 L 3.171875 0 L 1.046875 0 L 1.046875 -8.796875 L 2.34375 -8.796875 C 2.613281 -8.796875 2.789062 -8.671875 2.875 -8.421875 Z M 3.03125 -7.71875" style="stroke:none"></path></g></g><g style="fill:#000000;fill-opacity:1;"><g transform="translate(59.280615, 22.736773)"><path d="" style="stroke:none"></path></g></g><g style="fill:#000000;fill-opacity:1;"><g transform="translate(63.450342, 22.736773)"><path d="M 6.015625 -1.796875 C 6.453125 -1.796875 6.816406 -1.847656 7.109375 -1.953125 C 7.398438 -2.054688 7.628906 -2.191406 7.796875 -2.359375 C 7.972656 -2.535156 8.097656 -2.738281 8.171875 -2.96875 C 8.253906 -3.195312 8.296875 -3.441406 8.296875 -3.703125 C 8.296875 -3.960938 8.25 -4.203125 8.15625 -4.421875 C 8.070312 -4.640625 7.9375 -4.820312 7.75 -4.96875 C 7.570312 -5.125 7.335938 -5.238281 7.046875 -5.3125 C 6.765625 -5.394531 6.421875 -5.4375 6.015625 -5.4375 L 3.6875 -5.4375 L 3.6875 -1.796875 Z M 3.6875 -10.625 L 3.6875 -7.03125 L 5.53125 -7.03125 C 6.3125 -7.03125 6.90625 -7.171875 7.3125 -7.453125 C 7.71875 -7.742188 7.921875 -8.203125 7.921875 -8.828125 C 7.921875 -9.472656 7.734375 -9.929688 7.359375 -10.203125 C 6.992188 -10.484375 6.425781 -10.625 5.65625 -10.625 Z M 5.65625 -12.40625 C 6.46875 -12.40625 7.160156 -12.328125 7.734375 -12.171875 C 8.316406 -12.015625 8.789062 -11.789062 9.15625 -11.5 C 9.519531 -11.21875 9.785156 -10.875 9.953125 -10.46875 C 10.128906 -10.0625 10.21875 -9.601562 10.21875 -9.09375 C 10.21875 -8.800781 10.175781 -8.519531 10.09375 -8.25 C 10.007812 -7.988281 9.875 -7.742188 9.6875 -7.515625 C 9.507812 -7.285156 9.28125 -7.078125 9 -6.890625 C 8.726562 -6.703125 8.398438 -6.539062 8.015625 -6.40625 C 9.722656 -6.019531 10.578125 -5.097656 10.578125 -3.640625 C 10.578125 -3.117188 10.472656 -2.632812 10.265625 -2.1875 C 10.066406 -1.738281 9.773438 -1.351562 9.390625 -1.03125 C 9.015625 -0.707031 8.546875 -0.453125 7.984375 -0.265625 C 7.421875 -0.0859375 6.78125 0 6.0625 0 L 1.375 0 L 1.375 -12.40625 Z M 5.65625 -12.40625" style="stroke:none"></path></g></g><g style="fill:#000000;fill-opacity:1;"><g transform="translate(74.612486, 22.736773)"><path d="M 5.703125 -3.75 C 5.085938 -3.726562 4.570312 -3.675781 4.15625 -3.59375 C 3.738281 -3.519531 3.398438 -3.421875 3.140625 -3.296875 C 2.890625 -3.179688 2.707031 -3.039062 2.59375 -2.875 C 2.488281 -2.71875 2.4375 -2.546875 2.4375 -2.359375 C 2.4375 -1.984375 2.546875 -1.71875 2.765625 -1.5625 C 2.992188 -1.40625 3.285156 -1.328125 3.640625 -1.328125 C 4.066406 -1.328125 4.4375 -1.40625 4.75 -1.5625 C 5.070312 -1.71875 5.390625 -1.953125 5.703125 -2.265625 Z M 0.84375 -7.578125 C 1.851562 -8.503906 3.070312 -8.96875 4.5 -8.96875 C 5.007812 -8.96875 5.46875 -8.878906 5.875 -8.703125 C 6.28125 -8.535156 6.625 -8.300781 6.90625 -8 C 7.1875 -7.707031 7.398438 -7.351562 7.546875 -6.9375 C 7.691406 -6.519531 7.765625 -6.0625 7.765625 -5.5625 L 7.765625 0 L 6.796875 0 C 6.597656 0 6.441406 -0.03125 6.328125 -0.09375 C 6.222656 -0.15625 6.140625 -0.273438 6.078125 -0.453125 L 5.890625 -1.09375 C 5.671875 -0.894531 5.453125 -0.71875 5.234375 -0.5625 C 5.023438 -0.40625 4.804688 -0.273438 4.578125 -0.171875 C 4.347656 -0.078125 4.101562 -0.00390625 3.84375 0.046875 C 3.582031 0.109375 3.296875 0.140625 2.984375 0.140625 C 2.609375 0.140625 2.265625 0.09375 1.953125 0 C 1.640625 -0.101562 1.367188 -0.253906 1.140625 -0.453125 C 0.910156 -0.660156 0.734375 -0.910156 0.609375 -1.203125 C 0.484375 -1.503906 0.421875 -1.851562 0.421875 -2.25 C 0.421875 -2.46875 0.457031 -2.6875 0.53125 -2.90625 C 0.601562 -3.132812 0.722656 -3.347656 0.890625 -3.546875 C 1.066406 -3.742188 1.285156 -3.929688 1.546875 -4.109375 C 1.816406 -4.285156 2.144531 -4.4375 2.53125 -4.5625 C 2.925781 -4.695312 3.382812 -4.804688 3.90625 -4.890625 C 4.425781 -4.972656 5.023438 -5.023438 5.703125 -5.046875 L 5.703125 -5.5625 C 5.703125 -6.144531 5.570312 -6.578125 5.3125 -6.859375 C 5.0625 -7.148438 4.703125 -7.296875 4.234375 -7.296875 C 3.890625 -7.296875 3.601562 -7.253906 3.375 -7.171875 C 3.144531 -7.085938 2.941406 -6.992188 2.765625 -6.890625 C 2.597656 -6.796875 2.445312 -6.707031 2.3125 -6.625 C 2.175781 -6.550781 2.019531 -6.515625 1.84375 -6.515625 C 1.695312 -6.515625 1.570312 -6.550781 1.46875 -6.625 C 1.363281 -6.707031 1.28125 -6.796875 1.21875 -6.890625 Z M 0.84375 -7.578125" style="stroke:none"></path></g></g><g style="fill:#000000;fill-opacity:1;"><g transform="translate(83.320863, 22.736773)"><path d="M 3.03125 -7.71875 C 3.207031 -7.894531 3.394531 -8.054688 3.59375 -8.203125 C 3.789062 -8.359375 4 -8.488281 4.21875 -8.59375 C 4.4375 -8.707031 4.671875 -8.789062 4.921875 -8.84375 C 5.171875 -8.90625 5.445312 -8.9375 5.75 -8.9375 C 6.226562 -8.9375 6.648438 -8.851562 7.015625 -8.6875 C 7.390625 -8.53125 7.703125 -8.300781 7.953125 -8 C 8.203125 -7.707031 8.390625 -7.359375 8.515625 -6.953125 C 8.648438 -6.546875 8.71875 -6.09375 8.71875 -5.59375 L 8.71875 0 L 6.59375 0 L 6.59375 -5.59375 C 6.59375 -6.132812 6.46875 -6.550781 6.21875 -6.84375 C 5.976562 -7.144531 5.609375 -7.296875 5.109375 -7.296875 C 4.742188 -7.296875 4.398438 -7.210938 4.078125 -7.046875 C 3.753906 -6.878906 3.453125 -6.648438 3.171875 -6.359375 L 3.171875 0 L 1.046875 0 L 1.046875 -8.796875 L 2.34375 -8.796875 C 2.613281 -8.796875 2.789062 -8.671875 2.875 -8.421875 Z M 3.03125 -7.71875" style="stroke:none"></path></g></g><g style="fill:#000000;fill-opacity:1;"><g transform="translate(92.998746, 22.736773)"><path d="M 3.171875 -12.75 L 3.171875 -5.453125 L 3.5625 -5.453125 C 3.707031 -5.453125 3.816406 -5.46875 3.890625 -5.5 C 3.972656 -5.539062 4.0625 -5.617188 4.15625 -5.734375 L 6.34375 -8.4375 C 6.425781 -8.550781 6.523438 -8.640625 6.640625 -8.703125 C 6.753906 -8.765625 6.898438 -8.796875 7.078125 -8.796875 L 9.015625 -8.796875 L 6.28125 -5.53125 C 6.082031 -5.269531 5.867188 -5.070312 5.640625 -4.9375 C 5.765625 -4.851562 5.875 -4.753906 5.96875 -4.640625 C 6.0625 -4.523438 6.148438 -4.398438 6.234375 -4.265625 L 9.171875 0 L 7.25 0 C 7.09375 0 6.953125 -0.0234375 6.828125 -0.078125 C 6.703125 -0.128906 6.601562 -0.226562 6.53125 -0.375 L 4.28125 -3.71875 C 4.195312 -3.84375 4.113281 -3.925781 4.03125 -3.96875 C 3.945312 -4.007812 3.816406 -4.03125 3.640625 -4.03125 L 3.171875 -4.03125 L 3.171875 0 L 1.046875 0 L 1.046875 -12.75 Z M 3.171875 -12.75" style="stroke:none"></path></g></g><g style="fill:#000000;fill-opacity:1;"><g transform="translate(3.041419, 30.603526)"><path d="M 3.484375 -2.984375 L 3.484375 0 L 3.125 0 L 3.125 -2.1875 C 3.125 -2.21875 3.125 -2.25 3.125 -2.28125 C 3.125 -2.3125 3.128906 -2.347656 3.140625 -2.390625 L 2.109375 -0.515625 C 2.078125 -0.453125 2.03125 -0.421875 1.96875 -0.421875 L 1.90625 -0.421875 C 1.84375 -0.421875 1.796875 -0.453125 1.765625 -0.515625 L 0.71875 -2.390625 C 0.726562 -2.316406 0.734375 -2.25 0.734375 -2.1875 L 0.734375 0 L 0.375 0 L 0.375 -2.984375 L 0.671875 -2.984375 C 0.710938 -2.984375 0.742188 -2.976562 0.765625 -2.96875 C 0.785156 -2.957031 0.800781 -2.9375 0.8125 -2.90625 L 1.84375 -1.078125 C 1.863281 -1.046875 1.878906 -1.007812 1.890625 -0.96875 C 1.910156 -0.9375 1.925781 -0.898438 1.9375 -0.859375 C 1.945312 -0.898438 1.957031 -0.9375 1.96875 -0.96875 C 1.988281 -1.007812 2.007812 -1.046875 2.03125 -1.078125 L 3.046875 -2.90625 C 3.054688 -2.9375 3.070312 -2.957031 3.09375 -2.96875 C 3.113281 -2.976562 3.144531 -2.984375 3.1875 -2.984375 Z M 3.484375 -2.984375" style="stroke:none"></path></g></g><g style="fill:#000000;fill-opacity:1;"><g transform="translate(7.385046, 30.603526)"><path d="M 1.96875 -1.109375 L 1.5 -2.3125 C 1.476562 -2.351562 1.457031 -2.394531 1.4375 -2.4375 C 1.425781 -2.488281 1.414062 -2.539062 1.40625 -2.59375 C 1.375 -2.476562 1.34375 -2.382812 1.3125 -2.3125 L 0.84375 -1.109375 Z M 2.796875 0 L 2.484375 0 C 2.453125 0 2.425781 -0.00390625 2.40625 -0.015625 C 2.382812 -0.0351562 2.367188 -0.0625 2.359375 -0.09375 L 2.078125 -0.8125 L 0.734375 -0.8125 L 0.453125 -0.09375 C 0.453125 -0.0703125 0.4375 -0.0507812 0.40625 -0.03125 C 0.382812 -0.0078125 0.359375 0 0.328125 0 L 0.015625 0 L 1.203125 -2.984375 L 1.609375 -2.984375 Z M 2.796875 0" style="stroke:none"></path></g></g><g style="fill:#000000;fill-opacity:1;"><g transform="translate(10.682839, 30.603526)"><path d="M 2.96875 -1.484375 C 2.96875 -1.265625 2.929688 -1.0625 2.859375 -0.875 C 2.785156 -0.695312 2.679688 -0.539062 2.546875 -0.40625 C 2.421875 -0.28125 2.269531 -0.179688 2.09375 -0.109375 C 1.914062 -0.0351562 1.710938 0 1.484375 0 L 0.375 0 L 0.375 -2.984375 L 1.484375 -2.984375 C 1.710938 -2.984375 1.914062 -2.945312 2.09375 -2.875 C 2.269531 -2.800781 2.421875 -2.695312 2.546875 -2.5625 C 2.679688 -2.4375 2.785156 -2.28125 2.859375 -2.09375 C 2.929688 -1.914062 2.96875 -1.710938 2.96875 -1.484375 Z M 2.546875 -1.484375 C 2.546875 -1.671875 2.519531 -1.832031 2.46875 -1.96875 C 2.414062 -2.113281 2.34375 -2.238281 2.25 -2.34375 C 2.164062 -2.445312 2.054688 -2.523438 1.921875 -2.578125 C 1.796875 -2.628906 1.648438 -2.65625 1.484375 -2.65625 L 0.78125 -2.65625 L 0.78125 -0.328125 L 1.484375 -0.328125 C 1.648438 -0.328125 1.796875 -0.351562 1.921875 -0.40625 C 2.054688 -0.457031 2.164062 -0.53125 2.25 -0.625 C 2.34375 -0.726562 2.414062 -0.851562 2.46875 -1 C 2.519531 -1.144531 2.546875 -1.304688 2.546875 -1.484375 Z M 2.546875 -1.484375" style="stroke:none"></path></g></g><g style="fill:#000000;fill-opacity:1;"><g transform="translate(14.327858, 30.603526)"><path d="M 2.21875 -0.328125 L 2.21875 0 L 0.375 0 L 0.375 -2.984375 L 2.21875 -2.984375 L 2.21875 -2.65625 L 0.78125 -2.65625 L 0.78125 -1.65625 L 1.9375 -1.65625 L 1.9375 -1.34375 L 0.78125 -1.34375 L 0.78125 -0.328125 Z M 2.21875 -0.328125" style="stroke:none"></path></g></g><g style="fill:#000000;fill-opacity:1;"><g transform="translate(17.211892, 30.603526)"><path d="" style="stroke:none"></path></g></g><g style="fill:#000000;fill-opacity:1;"><g transform="translate(18.759005, 30.603526)"><path d="M 0.78125 0 L 0.375 0 L 0.375 -2.984375 L 0.78125 -2.984375 Z M 0.78125 0" style="stroke:none"></path></g></g><g style="fill:#000000;fill-opacity:1;"><g transform="translate(20.405919, 30.603526)"><path d="M 2.796875 -2.984375 L 2.796875 0 L 2.59375 0 C 2.5625 0 2.535156 -0.00390625 2.515625 -0.015625 C 2.492188 -0.0234375 2.472656 -0.046875 2.453125 -0.078125 L 0.71875 -2.3125 C 0.726562 -2.28125 0.734375 -2.25 0.734375 -2.21875 C 0.734375 -2.1875 0.734375 -2.15625 0.734375 -2.125 L 0.734375 0 L 0.375 0 L 0.375 -2.984375 L 0.59375 -2.984375 C 0.601562 -2.984375 0.613281 -2.976562 0.625 -2.96875 C 0.644531 -2.96875 0.660156 -2.960938 0.671875 -2.953125 C 0.679688 -2.953125 0.6875 -2.945312 0.6875 -2.9375 C 0.695312 -2.9375 0.710938 -2.925781 0.734375 -2.90625 L 2.453125 -0.671875 C 2.453125 -0.703125 2.445312 -0.734375 2.4375 -0.765625 C 2.4375 -0.804688 2.4375 -0.84375 2.4375 -0.875 L 2.4375 -2.984375 Z M 2.796875 -2.984375" style="stroke:none"></path></g></g><g style="fill:#000000;fill-opacity:1;"><g transform="translate(24.063413, 30.603526)"><path d="" style="stroke:none"></path></g></g><g style="fill:#000000;fill-opacity:1;"><g transform="translate(25.610526, 30.603526)"><path d="M 0.78125 0 L 0.375 0 L 0.375 -2.984375 L 0.78125 -2.984375 Z M 0.78125 0" style="stroke:none"></path></g></g><g style="fill:#000000;fill-opacity:1;"><g transform="translate(27.25744, 30.603526)"><path d="M 2.796875 -2.984375 L 2.796875 0 L 2.59375 0 C 2.5625 0 2.535156 -0.00390625 2.515625 -0.015625 C 2.492188 -0.0234375 2.472656 -0.046875 2.453125 -0.078125 L 0.71875 -2.3125 C 0.726562 -2.28125 0.734375 -2.25 0.734375 -2.21875 C 0.734375 -2.1875 0.734375 -2.15625 0.734375 -2.125 L 0.734375 0 L 0.375 0 L 0.375 -2.984375 L 0.59375 -2.984375 C 0.601562 -2.984375 0.613281 -2.976562 0.625 -2.96875 C 0.644531 -2.96875 0.660156 -2.960938 0.671875 -2.953125 C 0.679688 -2.953125 0.6875 -2.945312 0.6875 -2.9375 C 0.695312 -2.9375 0.710938 -2.925781 0.734375 -2.90625 L 2.453125 -0.671875 C 2.453125 -0.703125 2.445312 -0.734375 2.4375 -0.765625 C 2.4375 -0.804688 2.4375 -0.84375 2.4375 -0.875 L 2.4375 -2.984375 Z M 2.796875 -2.984375" style="stroke:none"></path></g></g><g style="fill:#000000;fill-opacity:1;"><g transform="translate(30.914933, 30.603526)"><path d="M 2.96875 -1.484375 C 2.96875 -1.265625 2.929688 -1.0625 2.859375 -0.875 C 2.785156 -0.695312 2.679688 -0.539062 2.546875 -0.40625 C 2.421875 -0.28125 2.269531 -0.179688 2.09375 -0.109375 C 1.914062 -0.0351562 1.710938 0 1.484375 0 L 0.375 0 L 0.375 -2.984375 L 1.484375 -2.984375 C 1.710938 -2.984375 1.914062 -2.945312 2.09375 -2.875 C 2.269531 -2.800781 2.421875 -2.695312 2.546875 -2.5625 C 2.679688 -2.4375 2.785156 -2.28125 2.859375 -2.09375 C 2.929688 -1.914062 2.96875 -1.710938 2.96875 -1.484375 Z M 2.546875 -1.484375 C 2.546875 -1.671875 2.519531 -1.832031 2.46875 -1.96875 C 2.414062 -2.113281 2.34375 -2.238281 2.25 -2.34375 C 2.164062 -2.445312 2.054688 -2.523438 1.921875 -2.578125 C 1.796875 -2.628906 1.648438 -2.65625 1.484375 -2.65625 L 0.78125 -2.65625 L 0.78125 -0.328125 L 1.484375 -0.328125 C 1.648438 -0.328125 1.796875 -0.351562 1.921875 -0.40625 C 2.054688 -0.457031 2.164062 -0.53125 2.25 -0.625 C 2.34375 -0.726562 2.414062 -0.851562 2.46875 -1 C 2.519531 -1.144531 2.546875 -1.304688 2.546875 -1.484375 Z M 2.546875 -1.484375" style="stroke:none"></path></g></g><g style="fill:#000000;fill-opacity:1;"><g transform="translate(34.559951, 30.603526)"><path d="M 0.78125 0 L 0.375 0 L 0.375 -2.984375 L 0.78125 -2.984375 Z M 0.78125 0" style="stroke:none"></path></g></g><g style="fill:#000000;fill-opacity:1;"><g transform="translate(36.206865, 30.603526)"><path d="M 1.96875 -1.109375 L 1.5 -2.3125 C 1.476562 -2.351562 1.457031 -2.394531 1.4375 -2.4375 C 1.425781 -2.488281 1.414062 -2.539062 1.40625 -2.59375 C 1.375 -2.476562 1.34375 -2.382812 1.3125 -2.3125 L 0.84375 -1.109375 Z M 2.796875 0 L 2.484375 0 C 2.453125 0 2.425781 -0.00390625 2.40625 -0.015625 C 2.382812 -0.0351562 2.367188 -0.0625 2.359375 -0.09375 L 2.078125 -0.8125 L 0.734375 -0.8125 L 0.453125 -0.09375 C 0.453125 -0.0703125 0.4375 -0.0507812 0.40625 -0.03125 C 0.382812 -0.0078125 0.359375 0 0.328125 0 L 0.015625 0 L 1.203125 -2.984375 L 1.609375 -2.984375 Z M 2.796875 0" style="stroke:none"></path></g></g><g style="fill:#000000;fill-opacity:1;"><g transform="translate(39.365319, 30.603526)"><path d="" style="stroke:none"></path></g></g><g style="fill:#000000;fill-opacity:1;"><g transform="translate(40.912429, 30.603526)"><path d="M 0.375 -3.1875 L 0.671875 -3.1875 L 0.671875 0.71875 L 0.375 0.71875 Z M 0.375 -3.1875" style="stroke:none"></path></g></g><g style="fill:#000000;fill-opacity:1;"><g transform="translate(42.436673, 30.603526)"><path d="" style="stroke:none"></path></g></g><g style="fill:#000000;fill-opacity:1;"><g transform="translate(43.983786, 30.603526)"><path d="M 1.203125 -1.53125 C 1.316406 -1.53125 1.414062 -1.546875 1.5 -1.578125 C 1.59375 -1.609375 1.671875 -1.648438 1.734375 -1.703125 C 1.796875 -1.753906 1.84375 -1.816406 1.875 -1.890625 C 1.90625 -1.960938 1.921875 -2.039062 1.921875 -2.125 C 1.921875 -2.300781 1.863281 -2.429688 1.75 -2.515625 C 1.632812 -2.609375 1.457031 -2.65625 1.21875 -2.65625 L 0.78125 -2.65625 L 0.78125 -1.53125 Z M 2.578125 0 L 2.21875 0 C 2.144531 0 2.09375 -0.0234375 2.0625 -0.078125 L 1.28125 -1.15625 C 1.257812 -1.1875 1.234375 -1.207031 1.203125 -1.21875 C 1.179688 -1.238281 1.144531 -1.25 1.09375 -1.25 L 0.78125 -1.25 L 0.78125 0 L 0.375 0 L 0.375 -2.984375 L 1.21875 -2.984375 C 1.40625 -2.984375 1.566406 -2.960938 1.703125 -2.921875 C 1.847656 -2.878906 1.960938 -2.820312 2.046875 -2.75 C 2.140625 -2.675781 2.207031 -2.585938 2.25 -2.484375 C 2.289062 -2.390625 2.3125 -2.28125 2.3125 -2.15625 C 2.3125 -2.050781 2.296875 -1.953125 2.265625 -1.859375 C 2.234375 -1.765625 2.1875 -1.679688 2.125 -1.609375 C 2.0625 -1.535156 1.984375 -1.472656 1.890625 -1.421875 C 1.796875 -1.367188 1.691406 -1.332031 1.578125 -1.3125 C 1.628906 -1.28125 1.675781 -1.238281 1.71875 -1.1875 Z M 2.578125 0" style="stroke:none"></path></g></g><g style="fill:#000000;fill-opacity:1;"><g transform="translate(47.042466, 30.603526)"><path d="M 3.125 -1.484375 C 3.125 -1.265625 3.085938 -1.0625 3.015625 -0.875 C 2.953125 -0.6875 2.851562 -0.523438 2.71875 -0.390625 C 2.59375 -0.253906 2.4375 -0.148438 2.25 -0.078125 C 2.070312 -0.00390625 1.875 0.03125 1.65625 0.03125 C 1.4375 0.03125 1.238281 -0.00390625 1.0625 -0.078125 C 0.882812 -0.148438 0.726562 -0.253906 0.59375 -0.390625 C 0.46875 -0.523438 0.367188 -0.6875 0.296875 -0.875 C 0.234375 -1.0625 0.203125 -1.265625 0.203125 -1.484375 C 0.203125 -1.710938 0.234375 -1.914062 0.296875 -2.09375 C 0.367188 -2.28125 0.46875 -2.441406 0.59375 -2.578125 C 0.726562 -2.710938 0.882812 -2.816406 1.0625 -2.890625 C 1.238281 -2.972656 1.4375 -3.015625 1.65625 -3.015625 C 1.875 -3.015625 2.070312 -2.972656 2.25 -2.890625 C 2.4375 -2.816406 2.59375 -2.710938 2.71875 -2.578125 C 2.851562 -2.441406 2.953125 -2.28125 3.015625 -2.09375 C 3.085938 -1.914062 3.125 -1.710938 3.125 -1.484375 Z M 2.71875 -1.484375 C 2.71875 -1.671875 2.691406 -1.835938 2.640625 -1.984375 C 2.585938 -2.128906 2.515625 -2.25 2.421875 -2.34375 C 2.335938 -2.445312 2.226562 -2.523438 2.09375 -2.578125 C 1.96875 -2.628906 1.820312 -2.65625 1.65625 -2.65625 C 1.5 -2.65625 1.351562 -2.628906 1.21875 -2.578125 C 1.09375 -2.523438 0.984375 -2.445312 0.890625 -2.34375 C 0.796875 -2.25 0.722656 -2.128906 0.671875 -1.984375 C 0.628906 -1.835938 0.609375 -1.671875 0.609375 -1.484375 C 0.609375 -1.304688 0.628906 -1.144531 0.671875 -1 C 0.722656 -0.851562 0.796875 -0.726562 0.890625 -0.625 C 0.984375 -0.53125 1.09375 -0.453125 1.21875 -0.390625 C 1.351562 -0.335938 1.5 -0.3125 1.65625 -0.3125 C 1.820312 -0.3125 1.96875 -0.335938 2.09375 -0.390625 C 2.226562 -0.453125 2.335938 -0.53125 2.421875 -0.625 C 2.515625 -0.726562 2.585938 -0.851562 2.640625 -1 C 2.691406 -1.144531 2.71875 -1.304688 2.71875 -1.484375 Z M 2.71875 -1.484375" style="stroke:none"></path></g></g><g style="fill:#000000;fill-opacity:1;"><g transform="translate(50.853818, 30.603526)"><path d="M 3.125 -1.484375 C 3.125 -1.265625 3.085938 -1.0625 3.015625 -0.875 C 2.953125 -0.6875 2.851562 -0.523438 2.71875 -0.390625 C 2.59375 -0.253906 2.4375 -0.148438 2.25 -0.078125 C 2.070312 -0.00390625 1.875 0.03125 1.65625 0.03125 C 1.4375 0.03125 1.238281 -0.00390625 1.0625 -0.078125 C 0.882812 -0.148438 0.726562 -0.253906 0.59375 -0.390625 C 0.46875 -0.523438 0.367188 -0.6875 0.296875 -0.875 C 0.234375 -1.0625 0.203125 -1.265625 0.203125 -1.484375 C 0.203125 -1.710938 0.234375 -1.914062 0.296875 -2.09375 C 0.367188 -2.28125 0.46875 -2.441406 0.59375 -2.578125 C 0.726562 -2.710938 0.882812 -2.816406 1.0625 -2.890625 C 1.238281 -2.972656 1.4375 -3.015625 1.65625 -3.015625 C 1.875 -3.015625 2.070312 -2.972656 2.25 -2.890625 C 2.4375 -2.816406 2.59375 -2.710938 2.71875 -2.578125 C 2.851562 -2.441406 2.953125 -2.28125 3.015625 -2.09375 C 3.085938 -1.914062 3.125 -1.710938 3.125 -1.484375 Z M 2.71875 -1.484375 C 2.71875 -1.671875 2.691406 -1.835938 2.640625 -1.984375 C 2.585938 -2.128906 2.515625 -2.25 2.421875 -2.34375 C 2.335938 -2.445312 2.226562 -2.523438 2.09375 -2.578125 C 1.96875 -2.628906 1.820312 -2.65625 1.65625 -2.65625 C 1.5 -2.65625 1.351562 -2.628906 1.21875 -2.578125 C 1.09375 -2.523438 0.984375 -2.445312 0.890625 -2.34375 C 0.796875 -2.25 0.722656 -2.128906 0.671875 -1.984375 C 0.628906 -1.835938 0.609375 -1.671875 0.609375 -1.484375 C 0.609375 -1.304688 0.628906 -1.144531 0.671875 -1 C 0.722656 -0.851562 0.796875 -0.726562 0.890625 -0.625 C 0.984375 -0.53125 1.09375 -0.453125 1.21875 -0.390625 C 1.351562 -0.335938 1.5 -0.3125 1.65625 -0.3125 C 1.820312 -0.3125 1.96875 -0.335938 2.09375 -0.390625 C 2.226562 -0.453125 2.335938 -0.53125 2.421875 -0.625 C 2.515625 -0.726562 2.585938 -0.851562 2.640625 -1 C 2.691406 -1.144531 2.71875 -1.304688 2.71875 -1.484375 Z M 2.71875 -1.484375" style="stroke:none"></path></g></g><g style="fill:#000000;fill-opacity:1;"><g transform="translate(54.532071, 30.603526)"><path d="M 2.390625 -2.640625 L 1.4375 -2.640625 L 1.4375 0 L 1.03125 0 L 1.03125 -2.640625 L 0.0625 -2.640625 L 0.0625 -2.984375 L 2.390625 -2.984375 Z M 2.390625 -2.640625" style="stroke:none"></path></g></g><g style="fill:#000000;fill-opacity:1;"><g transform="translate(57.470162, 30.603526)"><path d="M 2.21875 -0.328125 L 2.21875 0 L 0.375 0 L 0.375 -2.984375 L 2.21875 -2.984375 L 2.21875 -2.65625 L 0.78125 -2.65625 L 0.78125 -1.65625 L 1.9375 -1.65625 L 1.9375 -1.34375 L 0.78125 -1.34375 L 0.78125 -0.328125 Z M 2.21875 -0.328125" style="stroke:none"></path></g></g><g style="fill:#000000;fill-opacity:1;"><g transform="translate(60.354198, 30.603526)"><path d="M 2.96875 -1.484375 C 2.96875 -1.265625 2.929688 -1.0625 2.859375 -0.875 C 2.785156 -0.695312 2.679688 -0.539062 2.546875 -0.40625 C 2.421875 -0.28125 2.269531 -0.179688 2.09375 -0.109375 C 1.914062 -0.0351562 1.710938 0 1.484375 0 L 0.375 0 L 0.375 -2.984375 L 1.484375 -2.984375 C 1.710938 -2.984375 1.914062 -2.945312 2.09375 -2.875 C 2.269531 -2.800781 2.421875 -2.695312 2.546875 -2.5625 C 2.679688 -2.4375 2.785156 -2.28125 2.859375 -2.09375 C 2.929688 -1.914062 2.96875 -1.710938 2.96875 -1.484375 Z M 2.546875 -1.484375 C 2.546875 -1.671875 2.519531 -1.832031 2.46875 -1.96875 C 2.414062 -2.113281 2.34375 -2.238281 2.25 -2.34375 C 2.164062 -2.445312 2.054688 -2.523438 1.921875 -2.578125 C 1.796875 -2.628906 1.648438 -2.65625 1.484375 -2.65625 L 0.78125 -2.65625 L 0.78125 -0.328125 L 1.484375 -0.328125 C 1.648438 -0.328125 1.796875 -0.351562 1.921875 -0.40625 C 2.054688 -0.457031 2.164062 -0.53125 2.25 -0.625 C 2.34375 -0.726562 2.414062 -0.851562 2.46875 -1 C 2.519531 -1.144531 2.546875 -1.304688 2.546875 -1.484375 Z M 2.546875 -1.484375" style="stroke:none"></path></g></g><g style="fill:#000000;fill-opacity:1;"><g transform="translate(65.546327, 30.603526)"><path d="M 0.78125 0 L 0.375 0 L 0.375 -2.984375 L 0.78125 -2.984375 Z M 0.78125 0" style="stroke:none"></path></g></g><g style="fill:#000000;fill-opacity:1;"><g transform="translate(67.193241, 30.603526)"><path d="M 2.796875 -2.984375 L 2.796875 0 L 2.59375 0 C 2.5625 0 2.535156 -0.00390625 2.515625 -0.015625 C 2.492188 -0.0234375 2.472656 -0.046875 2.453125 -0.078125 L 0.71875 -2.3125 C 0.726562 -2.28125 0.734375 -2.25 0.734375 -2.21875 C 0.734375 -2.1875 0.734375 -2.15625 0.734375 -2.125 L 0.734375 0 L 0.375 0 L 0.375 -2.984375 L 0.59375 -2.984375 C 0.601562 -2.984375 0.613281 -2.976562 0.625 -2.96875 C 0.644531 -2.96875 0.660156 -2.960938 0.671875 -2.953125 C 0.679688 -2.953125 0.6875 -2.945312 0.6875 -2.9375 C 0.695312 -2.9375 0.710938 -2.925781 0.734375 -2.90625 L 2.453125 -0.671875 C 2.453125 -0.703125 2.445312 -0.734375 2.4375 -0.765625 C 2.4375 -0.804688 2.4375 -0.84375 2.4375 -0.875 L 2.4375 -2.984375 Z M 2.796875 -2.984375" style="stroke:none"></path></g></g><g style="fill:#000000;fill-opacity:1;"><g transform="translate(70.850739, 30.603526)"><path d="" style="stroke:none"></path></g></g><g style="fill:#000000;fill-opacity:1;"><g transform="translate(72.397849, 30.603526)"><path d="M 1.421875 -0.3125 C 1.535156 -0.3125 1.632812 -0.328125 1.71875 -0.359375 C 1.800781 -0.390625 1.867188 -0.425781 1.921875 -0.46875 C 1.972656 -0.519531 2.007812 -0.578125 2.03125 -0.640625 C 2.0625 -0.703125 2.078125 -0.773438 2.078125 -0.859375 C 2.078125 -1.015625 2.019531 -1.132812 1.90625 -1.21875 C 1.800781 -1.3125 1.640625 -1.359375 1.421875 -1.359375 L 0.78125 -1.359375 L 0.78125 -0.3125 Z M 0.78125 -2.65625 L 0.78125 -1.640625 L 1.3125 -1.640625 C 1.425781 -1.640625 1.523438 -1.648438 1.609375 -1.671875 C 1.691406 -1.703125 1.757812 -1.738281 1.8125 -1.78125 C 1.875 -1.820312 1.914062 -1.875 1.9375 -1.9375 C 1.96875 -2.007812 1.984375 -2.082031 1.984375 -2.15625 C 1.984375 -2.332031 1.925781 -2.457031 1.8125 -2.53125 C 1.707031 -2.613281 1.546875 -2.65625 1.328125 -2.65625 Z M 1.328125 -2.984375 C 1.515625 -2.984375 1.671875 -2.960938 1.796875 -2.921875 C 1.929688 -2.890625 2.039062 -2.835938 2.125 -2.765625 C 2.207031 -2.703125 2.269531 -2.617188 2.3125 -2.515625 C 2.351562 -2.421875 2.375 -2.316406 2.375 -2.203125 C 2.375 -2.128906 2.363281 -2.054688 2.34375 -1.984375 C 2.320312 -1.921875 2.285156 -1.859375 2.234375 -1.796875 C 2.191406 -1.742188 2.132812 -1.691406 2.0625 -1.640625 C 2 -1.597656 1.921875 -1.5625 1.828125 -1.53125 C 2.046875 -1.488281 2.207031 -1.410156 2.3125 -1.296875 C 2.425781 -1.179688 2.484375 -1.03125 2.484375 -0.84375 C 2.484375 -0.71875 2.457031 -0.601562 2.40625 -0.5 C 2.363281 -0.394531 2.296875 -0.304688 2.203125 -0.234375 C 2.117188 -0.160156 2.007812 -0.101562 1.875 -0.0625 C 1.75 -0.0195312 1.601562 0 1.4375 0 L 0.375 0 L 0.375 -2.984375 Z M 1.328125 -2.984375" style="stroke:none"></path></g></g><g style="fill:#000000;fill-opacity:1;"><g transform="translate(75.568812, 30.603526)"><path d="M 0.78125 0 L 0.375 0 L 0.375 -2.984375 L 0.78125 -2.984375 Z M 0.78125 0" style="stroke:none"></path></g></g><g style="fill:#000000;fill-opacity:1;"><g transform="translate(77.215726, 30.603526)"><path d="M 3.125 -1.484375 C 3.125 -1.265625 3.085938 -1.0625 3.015625 -0.875 C 2.953125 -0.6875 2.851562 -0.523438 2.71875 -0.390625 C 2.59375 -0.253906 2.4375 -0.148438 2.25 -0.078125 C 2.070312 -0.00390625 1.875 0.03125 1.65625 0.03125 C 1.4375 0.03125 1.238281 -0.00390625 1.0625 -0.078125 C 0.882812 -0.148438 0.726562 -0.253906 0.59375 -0.390625 C 0.46875 -0.523438 0.367188 -0.6875 0.296875 -0.875 C 0.234375 -1.0625 0.203125 -1.265625 0.203125 -1.484375 C 0.203125 -1.710938 0.234375 -1.914062 0.296875 -2.09375 C 0.367188 -2.28125 0.46875 -2.441406 0.59375 -2.578125 C 0.726562 -2.710938 0.882812 -2.816406 1.0625 -2.890625 C 1.238281 -2.972656 1.4375 -3.015625 1.65625 -3.015625 C 1.875 -3.015625 2.070312 -2.972656 2.25 -2.890625 C 2.4375 -2.816406 2.59375 -2.710938 2.71875 -2.578125 C 2.851562 -2.441406 2.953125 -2.28125 3.015625 -2.09375 C 3.085938 -1.914062 3.125 -1.710938 3.125 -1.484375 Z M 2.71875 -1.484375 C 2.71875 -1.671875 2.691406 -1.835938 2.640625 -1.984375 C 2.585938 -2.128906 2.515625 -2.25 2.421875 -2.34375 C 2.335938 -2.445312 2.226562 -2.523438 2.09375 -2.578125 C 1.96875 -2.628906 1.820312 -2.65625 1.65625 -2.65625 C 1.5 -2.65625 1.351562 -2.628906 1.21875 -2.578125 C 1.09375 -2.523438 0.984375 -2.445312 0.890625 -2.34375 C 0.796875 -2.25 0.722656 -2.128906 0.671875 -1.984375 C 0.628906 -1.835938 0.609375 -1.671875 0.609375 -1.484375 C 0.609375 -1.304688 0.628906 -1.144531 0.671875 -1 C 0.722656 -0.851562 0.796875 -0.726562 0.890625 -0.625 C 0.984375 -0.53125 1.09375 -0.453125 1.21875 -0.390625 C 1.351562 -0.335938 1.5 -0.3125 1.65625 -0.3125 C 1.820312 -0.3125 1.96875 -0.335938 2.09375 -0.390625 C 2.226562 -0.453125 2.335938 -0.53125 2.421875 -0.625 C 2.515625 -0.726562 2.585938 -0.851562 2.640625 -1 C 2.691406 -1.144531 2.71875 -1.304688 2.71875 -1.484375 Z M 2.71875 -1.484375" style="stroke:none"></path></g></g><g style="fill:#000000;fill-opacity:1;"><g transform="translate(81.027083, 30.603526)"><path d="M 3.484375 -2.984375 L 3.484375 0 L 3.125 0 L 3.125 -2.1875 C 3.125 -2.21875 3.125 -2.25 3.125 -2.28125 C 3.125 -2.3125 3.128906 -2.347656 3.140625 -2.390625 L 2.109375 -0.515625 C 2.078125 -0.453125 2.03125 -0.421875 1.96875 -0.421875 L 1.90625 -0.421875 C 1.84375 -0.421875 1.796875 -0.453125 1.765625 -0.515625 L 0.71875 -2.390625 C 0.726562 -2.316406 0.734375 -2.25 0.734375 -2.1875 L 0.734375 0 L 0.375 0 L 0.375 -2.984375 L 0.671875 -2.984375 C 0.710938 -2.984375 0.742188 -2.976562 0.765625 -2.96875 C 0.785156 -2.957031 0.800781 -2.9375 0.8125 -2.90625 L 1.84375 -1.078125 C 1.863281 -1.046875 1.878906 -1.007812 1.890625 -0.96875 C 1.910156 -0.9375 1.925781 -0.898438 1.9375 -0.859375 C 1.945312 -0.898438 1.957031 -0.9375 1.96875 -0.96875 C 1.988281 -1.007812 2.007812 -1.046875 2.03125 -1.078125 L 3.046875 -2.90625 C 3.054688 -2.9375 3.070312 -2.957031 3.09375 -2.96875 C 3.113281 -2.976562 3.144531 -2.984375 3.1875 -2.984375 Z M 3.484375 -2.984375" style="stroke:none"></path></g></g><g style="fill:#000000;fill-opacity:1;"><g transform="translate(85.370708, 30.603526)"><path d="M 0.78125 0 L 0.375 0 L 0.375 -2.984375 L 0.78125 -2.984375 Z M 0.78125 0" style="stroke:none"></path></g></g><g style="fill:#000000;fill-opacity:1;"><g transform="translate(87.017622, 30.603526)"><path d="M 3.484375 -2.984375 L 3.484375 0 L 3.125 0 L 3.125 -2.1875 C 3.125 -2.21875 3.125 -2.25 3.125 -2.28125 C 3.125 -2.3125 3.128906 -2.347656 3.140625 -2.390625 L 2.109375 -0.515625 C 2.078125 -0.453125 2.03125 -0.421875 1.96875 -0.421875 L 1.90625 -0.421875 C 1.84375 -0.421875 1.796875 -0.453125 1.765625 -0.515625 L 0.71875 -2.390625 C 0.726562 -2.316406 0.734375 -2.25 0.734375 -2.1875 L 0.734375 0 L 0.375 0 L 0.375 -2.984375 L 0.671875 -2.984375 C 0.710938 -2.984375 0.742188 -2.976562 0.765625 -2.96875 C 0.785156 -2.957031 0.800781 -2.9375 0.8125 -2.90625 L 1.84375 -1.078125 C 1.863281 -1.046875 1.878906 -1.007812 1.890625 -0.96875 C 1.910156 -0.9375 1.925781 -0.898438 1.9375 -0.859375 C 1.945312 -0.898438 1.957031 -0.9375 1.96875 -0.96875 C 1.988281 -1.007812 2.007812 -1.046875 2.03125 -1.078125 L 3.046875 -2.90625 C 3.054688 -2.9375 3.070312 -2.957031 3.09375 -2.96875 C 3.113281 -2.976562 3.144531 -2.984375 3.1875 -2.984375 Z M 3.484375 -2.984375" style="stroke:none"></path></g></g><g style="fill:#000000;fill-opacity:1;"><g transform="translate(91.361252, 30.603526)"><path d="M 0.78125 0 L 0.375 0 L 0.375 -2.984375 L 0.78125 -2.984375 Z M 0.78125 0" style="stroke:none"></path></g></g><g style="fill:#000000;fill-opacity:1;"><g transform="translate(93.008162, 30.603526)"><path d="M 2.46875 -0.609375 C 2.488281 -0.609375 2.507812 -0.601562 2.53125 -0.59375 L 2.6875 -0.421875 C 2.5625 -0.273438 2.410156 -0.160156 2.234375 -0.078125 C 2.066406 -0.00390625 1.859375 0.03125 1.609375 0.03125 C 1.398438 0.03125 1.207031 -0.00390625 1.03125 -0.078125 C 0.851562 -0.148438 0.703125 -0.253906 0.578125 -0.390625 C 0.460938 -0.523438 0.367188 -0.6875 0.296875 -0.875 C 0.234375 -1.0625 0.203125 -1.265625 0.203125 -1.484375 C 0.203125 -1.710938 0.234375 -1.921875 0.296875 -2.109375 C 0.367188 -2.296875 0.46875 -2.453125 0.59375 -2.578125 C 0.726562 -2.710938 0.882812 -2.816406 1.0625 -2.890625 C 1.238281 -2.972656 1.4375 -3.015625 1.65625 -3.015625 C 1.863281 -3.015625 2.046875 -2.976562 2.203125 -2.90625 C 2.367188 -2.84375 2.515625 -2.753906 2.640625 -2.640625 L 2.515625 -2.453125 C 2.503906 -2.429688 2.488281 -2.414062 2.46875 -2.40625 C 2.457031 -2.40625 2.441406 -2.40625 2.421875 -2.40625 C 2.398438 -2.40625 2.367188 -2.414062 2.328125 -2.4375 C 2.296875 -2.46875 2.25 -2.5 2.1875 -2.53125 C 2.132812 -2.5625 2.0625 -2.585938 1.96875 -2.609375 C 1.882812 -2.640625 1.78125 -2.65625 1.65625 -2.65625 C 1.5 -2.65625 1.351562 -2.628906 1.21875 -2.578125 C 1.09375 -2.523438 0.984375 -2.445312 0.890625 -2.34375 C 0.804688 -2.25 0.738281 -2.128906 0.6875 -1.984375 C 0.632812 -1.835938 0.609375 -1.671875 0.609375 -1.484375 C 0.609375 -1.296875 0.632812 -1.128906 0.6875 -0.984375 C 0.738281 -0.835938 0.8125 -0.710938 0.90625 -0.609375 C 1 -0.515625 1.109375 -0.441406 1.234375 -0.390625 C 1.359375 -0.335938 1.492188 -0.3125 1.640625 -0.3125 C 1.722656 -0.3125 1.800781 -0.316406 1.875 -0.328125 C 1.945312 -0.335938 2.015625 -0.351562 2.078125 -0.375 C 2.140625 -0.394531 2.195312 -0.421875 2.25 -0.453125 C 2.300781 -0.492188 2.351562 -0.535156 2.40625 -0.578125 C 2.425781 -0.597656 2.445312 -0.609375 2.46875 -0.609375 Z M 2.46875 -0.609375" style="stroke:none"></path></g></g><g style="fill:#000000;fill-opacity:1;"><g transform="translate(96.268533, 30.603526)"><path d="M 1.203125 -1.53125 C 1.316406 -1.53125 1.414062 -1.546875 1.5 -1.578125 C 1.59375 -1.609375 1.671875 -1.648438 1.734375 -1.703125 C 1.796875 -1.753906 1.84375 -1.816406 1.875 -1.890625 C 1.90625 -1.960938 1.921875 -2.039062 1.921875 -2.125 C 1.921875 -2.300781 1.863281 -2.429688 1.75 -2.515625 C 1.632812 -2.609375 1.457031 -2.65625 1.21875 -2.65625 L 0.78125 -2.65625 L 0.78125 -1.53125 Z M 2.578125 0 L 2.21875 0 C 2.144531 0 2.09375 -0.0234375 2.0625 -0.078125 L 1.28125 -1.15625 C 1.257812 -1.1875 1.234375 -1.207031 1.203125 -1.21875 C 1.179688 -1.238281 1.144531 -1.25 1.09375 -1.25 L 0.78125 -1.25 L 0.78125 0 L 0.375 0 L 0.375 -2.984375 L 1.21875 -2.984375 C 1.40625 -2.984375 1.566406 -2.960938 1.703125 -2.921875 C 1.847656 -2.878906 1.960938 -2.820312 2.046875 -2.75 C 2.140625 -2.675781 2.207031 -2.585938 2.25 -2.484375 C 2.289062 -2.390625 2.3125 -2.28125 2.3125 -2.15625 C 2.3125 -2.050781 2.296875 -1.953125 2.265625 -1.859375 C 2.234375 -1.765625 2.1875 -1.679688 2.125 -1.609375 C 2.0625 -1.535156 1.984375 -1.472656 1.890625 -1.421875 C 1.796875 -1.367188 1.691406 -1.332031 1.578125 -1.3125 C 1.628906 -1.28125 1.675781 -1.238281 1.71875 -1.1875 Z M 2.578125 0" style="stroke:none"></path></g></g><g style="fill:#000000;fill-opacity:1;"><g transform="translate(99.241938, 30.603526)"><path d="M 1.5 -1.1875 L 1.5 0 L 1.09375 0 L 1.09375 -1.1875 L 0 -2.984375 L 0.359375 -2.984375 C 0.390625 -2.984375 0.414062 -2.972656 0.4375 -2.953125 C 0.457031 -2.929688 0.476562 -2.910156 0.5 -2.890625 L 1.171875 -1.734375 C 1.203125 -1.679688 1.226562 -1.632812 1.25 -1.59375 C 1.269531 -1.550781 1.285156 -1.507812 1.296875 -1.46875 C 1.316406 -1.507812 1.332031 -1.550781 1.34375 -1.59375 C 1.363281 -1.632812 1.390625 -1.679688 1.421875 -1.734375 L 2.09375 -2.890625 C 2.101562 -2.910156 2.117188 -2.929688 2.140625 -2.953125 C 2.171875 -2.972656 2.203125 -2.984375 2.234375 -2.984375 L 2.59375 -2.984375 Z M 1.5 -1.1875" style="stroke:none"></path></g></g></g></svg>