<svg preserveAspectRatio="xMidYMid meet" viewBox="0 0 400.000000 111.000000" height="111.000000pt" width="400.000000pt" xmlns="http://www.w3.org/2000/svg" version="1.0">

<g stroke="none" fill="#000000" transform="translate(0.000000,111.000000) scale(0.100000,-0.100000)">
<path d="M57 933 c-4 -3 -7 -141 -7 -305 l0 -298 55 0 c48 0 55 2 55 20 0 25
2 25 46 -5 45 -30 136 -35 190 -9 71 34 124 123 124 209 0 86 -53 175 -124
209 -54 26 -145 21 -190 -9 -20 -14 -39 -25 -41 -25 -3 0 -5 50 -5 110 l0 110
-48 0 c-27 0 -52 -3 -55 -7z m314 -302 c34 -34 39 -44 39 -85 0 -39 -6 -52
-34 -84 -32 -34 -39 -37 -89 -37 -45 0 -60 5 -81 24 -51 48 -57 122 -14 176
25 32 51 44 102 44 32 1 45 -6 77 -38z"></path>
<path d="M1120 635 l0 -305 175 0 175 0 0 55 0 55 -115 0 -115 0 0 250 0 250
-60 0 -60 0 0 -305z"></path>
<path d="M3840 620 l0 -320 50 0 50 0 0 320 0 320 -50 0 -50 0 0 -320z"></path>
<path d="M2614 904 c-43 -42 -15 -107 47 -107 61 0 90 70 46 111 -31 29 -62
28 -93 -4z"></path>
<path d="M2412 807 c-20 -24 -17 -35 21 -61 47 -32 55 -32 68 0 14 37 -11 74
-50 74 -16 0 -33 -6 -39 -13z"></path>
<path d="M699 747 c-27 -14 -57 -42 -76 -70 -56 -83 -56 -181 0 -264 41 -60
93 -86 180 -91 80 -5 140 14 181 57 l27 29 -45 25 c-38 21 -47 23 -57 11 -18
-22 -79 -34 -124 -24 -37 8 -85 48 -85 71 0 5 68 9 165 9 l165 0 0 53 c0 66
-26 123 -75 165 -49 43 -73 52 -149 52 -46 0 -75 -6 -107 -23z m155 -81 c34
-14 66 -50 66 -73 0 -10 -27 -13 -110 -13 -100 0 -110 2 -110 18 0 31 64 79
108 81 7 1 28 -5 46 -13z"></path>
<path d="M1650 759 c-81 -32 -140 -123 -140 -215 0 -70 41 -149 98 -189 41
-28 50 -30 132 -30 83 0 91 2 132 31 135 98 129 297 -12 382 -47 28 -63 32
-120 31 -36 0 -76 -5 -90 -10z m177 -133 c27 -29 33 -44 33 -81 0 -38 -6 -52
-34 -83 -31 -34 -39 -37 -86 -37 -47 0 -55 3 -86 37 -45 50 -48 110 -7 158 34
41 58 51 108 45 30 -3 48 -13 72 -39z"></path>
<path d="M2183 745 c-144 -72 -173 -268 -56 -376 50 -47 93 -63 165 -63 56 0
74 5 114 30 73 45 107 100 112 180 6 84 -15 140 -72 192 -73 67 -174 81 -263
37z m166 -93 c121 -65 75 -242 -62 -242 -44 0 -53 4 -88 39 -33 33 -39 45 -39
82 0 106 99 169 189 121z"></path>
<path d="M2945 735 c-51 -18 -120 -91 -134 -141 -26 -92 -6 -170 59 -235 89
-89 228 -90 323 -1 15 14 27 31 27 38 0 7 -20 24 -45 38 -38 21 -47 23 -52 10
-8 -21 -56 -44 -93 -44 -67 0 -120 53 -120 120 0 67 53 120 120 120 35 0 86
-23 93 -42 5 -16 97 30 97 48 0 21 -77 82 -117 93 -51 15 -110 13 -158 -4z"></path>
<path d="M3395 731 c-98 -44 -151 -155 -126 -265 21 -96 113 -175 204 -176 41
0 101 22 129 47 17 15 18 14 18 -10 0 -26 2 -27 55 -27 l55 0 0 220 0 220 -55
0 c-53 0 -55 -1 -55 -27 0 -24 -1 -25 -18 -10 -52 47 -140 59 -207 28z m168
-103 c26 -13 57 -68 57 -101 0 -41 -24 -91 -53 -110 -37 -24 -112 -22 -147 3
-54 38 -63 128 -19 184 33 42 107 53 162 24z"></path>
<path d="M2610 519 l0 -220 53 3 52 3 3 218 2 217 -55 0 -55 0 0 -221z"></path>
<path d="M2096 244 c-56 -55 55 -134 190 -134 144 0 257 76 198 134 -21 22
-32 20 -77 -11 -30 -21 -54 -28 -101 -31 -53 -3 -69 0 -120 27 -67 36 -69 36
-90 15z"></path>
</g>
</svg>
