<svg version="1.1" id="Layer_1" x="0px" y="0px" viewBox="0 0 1200 370" style="enable-background:new 0 0 1200 370;" xml:space="preserve" xmlns="http://www.w3.org/2000/svg" xmlns:xlink="http://www.w3.org/1999/xlink">
<style type="text/css">
	.st0{enable-background:new    ;}
	.st1{fill:#FFFFFF;}
</style>
<g class="st0">
	<path style="fill: #000;" class="st1" d="M91,90.4c-5.2-6.2-6.3-15.5-2.7-23.7c8.7-19,26.7-32.4,53-32.1c53,1.1,42.3,52.4-22.2,53.5   c1.7-10.3-1.1-16.5-5.5-19.3c-14.2-10.6-29.4,6.5-10,21.1c119.2-0.3,112.5,137.5-6.3,137.2c-11.1-0.3-20.7-1.4-29.8-3.5   c-8.7-0.3-21.1,0.3-32.3,4.7c-19.5,7.3-26,25.5,7,17.3c42.9-11.1,68.2-11.4,92.6-7c42.9,7.9,59.7,33.4,57.5,59.4   c-3.2,32.1-35.6,65.2-83.9,65.2c-58.2,0-80.1-36.9-55.7-60.9c18.4-17.9,66.8-7.9,73.1,12.8c-18.7,4.1-28.3,38.6-3.2,38.6   c18,0,30.2-12,31.5-26.3c0.9-11.1-4.9-23.7-20.1-32.4c-23.6-14.4-44.6-16.5-66.2-12.7c-7.3,1.1-43.7,10.3-59.7-13.1   c-11.4-16.9-1.1-45.9,39.4-53.2C-12.5,185.2,3.8,98,91,90.4z M87.2,217.3c32,3.5,51-112.7,24.7-118.9   C78.5,90.7,54.6,213.9,87.2,217.3z"></path>
	<path style="fill: #000;" class="st1" d="M201.5,17.8h76.8c-17.5,71.9-17.5,189.2,0,261.2h-76.8C218.8,207.2,218.8,89.7,201.5,17.8z"></path>
	<path style="fill: #000;" class="st1" d="M377.3,284.3c-55.4,0-85.3-42.1-85.3-96.6s30.1-96.2,85.3-96.2s85.9,41.8,85.9,96.2S432.7,284.3,377.3,284.3z    M364.5,273.5c42.6-4.9,65.1-175.2,27.7-170.9C346.8,108,320.8,278.8,364.5,273.5z"></path>
	<path style="fill: #000;" class="st1" d="M452.5,95.3h70.6c0,0,22.5,90.4,41.9,130.4c0.6-38.9,23.3-74.6,12.2-108.6c-1.1-4.1-2.8-8.2-5.2-12   c-1.7-3.2-5.5-8.2-5.5-8.2h69.9c0.6,23.5,22.2,89.1,41.7,129.2c1-45.5,21.6-69.1,4.9-129.2h56.9c-37.9,45.7-75.6,127.5-34.4,182   h-75.6c0-26.6-17.1-85.5-36.5-132.1c-21.5,42.9-30.1,94.1-0.3,132.1h-77.5C515.5,239.5,479.5,133.3,452.5,95.3z"></path>
	<path style="fill: #000;" class="st1" d="M724.4,293.6c8.7,31.7,58.6,33.7,65.2,20.7c5.2-9.7-8.2-26.9-60.3-35.8c17.3-71.7,17.3-110-0.3-181.7H806   c-17.4,71.7-16.9,109.7-0.3,181.7c10,42.1-35.3,76.1-86.3,78.7C660.5,360.6,663.2,307.4,724.4,293.6z M768.6,7.3   c54.8-6.2,54.1,55.2,0,61.4C713.8,75.2,713.5,13.6,768.6,7.3z"></path>
	<path style="fill: #000;" class="st1" d="M907.1,284.3c-55.4,0-85.3-42.1-85.3-96.6s30.1-96.2,85.3-96.2c55.4,0,85.9,41.8,85.9,96.2   S962.3,284.3,907.1,284.3z M894.3,273.5c42.6-4.9,64.9-175.2,27.7-170.9C876.4,108,850.6,278.8,894.3,273.5z"></path>
	<path style="fill: #000;" class="st1" d="M1006.7,17.8h76.8c-11.7,47.3-15.5,114.1-11.9,175.2c7.6-80.1,59.3-112.7,91.4-99.2   c23.3,9.7,37.4,41.7,31.9,80.1c-7.6,52.2-54.3,105-111.9,105h-76.2C1024,207,1024,89.6,1006.7,17.8z M1082.2,271.8   c25,1.1,48.4-42.7,55.1-84.5C1159.1,52.3,1059.2,114.6,1082.2,271.8z"></path>
</g>
</svg>