<svg xmlns="http://www.w3.org/2000/svg" fill="none" viewBox="0 0 316 88" height="88" width="316">
<path fill="#FFED14" d="M262.319 32.2448C266.693 32.2448 270.239 37.7808 270.239 44.6118C270.239 51.4438 266.693 56.98 262.319 56.98C257.945 56.98 254.398 51.4438 254.398 44.6118C254.398 37.7808 257.945 32.2448 262.319 32.2448Z" clip-rule="evenodd" fill-rule="evenodd"></path>
<path stroke-linejoin="round" stroke-linecap="round" stroke-width="7.90039" stroke="#FFED14" d="M37.7174 37.6033C36.6958 39.2662 35.6861 40.9414 34.6893 42.6281C33.6918 44.3156 32.6831 46.0146 31.6614 47.7257C31.4669 48.0682 31.2599 48.4107 31.0415 48.7526C30.8229 49.0951 30.5911 49.4375 30.3484 49.7796C29.6185 50.807 28.7672 51.3318 27.7941 51.3564C26.8211 51.3809 25.9702 50.855 25.241 49.7794C24.3648 48.6061 23.6115 47.237 22.9788 45.6719C22.6869 44.9872 22.3953 44.303 22.1035 43.6184C21.8115 42.9339 21.5433 42.2494 21.3011 41.5648C20.2795 39.2179 19.6352 38.1174 19.3674 38.2638C19.0999 38.4103 18.9663 39.7553 18.9662 42.2977C18.9171 45.3294 19.0146 48.3494 19.2579 51.3566C19.5009 54.3639 19.963 57.359 20.6441 60.3415C20.7895 60.7818 20.936 61.2221 21.082 61.6623C21.2279 62.102 21.3976 62.5422 21.5923 62.9819C21.9334 64.4006 21.775 65.5493 21.1182 66.4297C20.4618 67.3097 19.5986 67.8838 18.5277 68.1532C17.4584 68.4221 16.3266 68.3983 15.1359 68.0797C13.9436 67.7621 13.0316 67.0899 12.399 66.0627C11.2319 64.4981 10.2958 62.4571 9.59006 59.9383C8.88484 57.4206 8.39836 54.6694 8.13088 51.686C7.86312 48.7036 7.7784 45.6104 7.87521 42.408C7.97328 39.2057 8.25277 36.1608 8.71422 33.2768C9.17671 30.3914 9.78492 27.787 10.5389 25.4641C11.2924 23.142 12.1804 21.3453 13.2022 20.0732C13.7854 19.3887 14.454 18.8999 15.2082 18.6063C15.9619 18.3134 16.7165 18.2279 17.4707 18.3496C18.2241 18.4722 18.9291 18.7653 19.5864 19.2297C20.2423 19.6949 20.7659 20.3427 21.1552 21.1734C21.3979 21.712 21.5928 22.2738 21.7384 22.8608C21.8845 23.4475 22.0299 24.0346 22.1768 24.621C22.8576 27.4088 23.599 30.1957 24.4018 32.9823C25.2042 35.7702 26.0925 38.5331 27.065 41.2714C27.2108 41.5647 27.3447 41.8822 27.4665 42.2245C27.5876 42.5668 27.7703 42.9823 28.0137 43.4713C28.2565 43.0808 28.4631 42.7387 28.6338 42.4449C28.8037 42.151 28.9371 41.858 29.0353 41.5648C30.6396 38.1908 32.4396 34.9751 34.434 31.9191C36.4282 28.8633 38.5684 25.868 40.8553 22.9342C42.0223 21.4184 43.2258 20.1592 44.4662 19.1563C45.7067 18.154 46.8868 17.5793 48.0052 17.4332C49.1238 17.2863 50.1454 17.6651 51.0699 18.5702C51.9938 19.4747 52.7477 21.0513 53.332 23.3007C53.9148 25.6972 54.3407 28.4476 54.6081 31.5529C54.8755 34.658 55.0217 37.9099 55.0458 41.3077C55.0704 44.7063 55.0097 48.1533 54.8641 51.65C54.718 55.1464 54.5233 58.4834 54.2795 61.662C54.0851 63.9602 53.368 65.6837 52.1277 66.833C50.8873 67.9823 49.5622 68.5806 48.1511 68.63C46.7405 68.6789 45.4517 68.1652 44.2844 67.0895C43.1166 66.0137 42.5576 64.3755 42.6058 62.175C42.7034 57.9212 42.8978 53.692 43.1899 49.4865C43.4818 45.2812 43.5786 41.4181 43.4814 37.8975C43.3845 35.7941 43.2508 34.2664 43.08 33.313C42.91 32.3593 42.6181 31.907 42.2044 31.9555C41.791 32.005 41.2194 32.5187 40.4898 33.496C39.761 34.4739 38.8362 35.8434 37.7174 37.6033ZM63.9843 55.5007C62.3304 54.1807 61.1026 52.5303 60.299 50.5498C59.4975 48.5689 58.9865 46.4545 58.7676 44.2051C58.5486 41.9557 58.5726 39.7184 58.8402 37.4943C59.108 35.269 59.5333 33.2765 60.1175 31.5159C60.3607 30.5867 60.8229 29.78 61.5037 29.0951C61.9901 28.5576 62.5613 28.1665 63.2181 27.922C63.8751 27.677 64.5439 27.5793 65.2244 27.6284C65.9061 27.6769 66.5376 27.8727 67.1219 28.2148C67.7054 28.5571 68.1676 29.0464 68.5079 29.6827C68.8976 30.2195 69.1768 30.831 69.3467 31.5159C69.5178 32.2002 69.651 32.8849 69.7483 33.5698C69.8943 34.9875 70.004 36.6379 70.077 38.5207C70.1496 40.4032 70.2347 42.2001 70.3326 43.9118C70.4291 45.5254 70.685 46.9187 71.0983 48.0925C71.5119 49.2659 72.0953 49.9384 72.8489 50.1103C73.6033 50.2806 74.5158 49.8409 75.5857 48.7889C76.6557 47.7376 77.8961 45.7942 79.3063 42.9582C80.5224 40.6112 81.4715 38.2026 82.1521 35.7334C82.8333 33.2635 83.7084 30.5378 84.7789 27.5551C85.2163 26.528 85.8364 25.7946 86.6388 25.3548C87.4423 24.9138 88.2686 24.7194 89.1199 24.7676C89.9714 24.8163 90.7736 25.0978 91.5276 25.6117C92.2817 26.1246 92.8048 26.7721 93.0964 27.5553C93.3395 28.5822 93.5708 29.596 93.7894 30.5989C94.0089 31.6006 94.1669 32.6397 94.2639 33.716C94.653 36.7973 94.8358 39.8895 94.811 42.9944C94.7867 46.0997 94.7503 49.2171 94.7019 52.3465C94.653 54.6445 94.5196 56.9305 94.3006 59.2047C94.0816 61.478 93.7044 63.7644 93.1691 66.0624C92.6831 67.9211 92.0019 69.6567 91.1266 71.2703C90.2511 72.8847 89.1927 74.3139 87.9524 75.561C86.7121 76.8085 85.302 77.8226 83.721 78.6054C82.1403 79.3878 80.4006 79.8766 78.5041 80.0721C77.2879 80.1698 76.0353 80.1456 74.7468 79.9988C73.4576 79.8523 72.2412 79.5584 71.0982 79.1188C69.9548 78.6789 68.9215 78.0556 67.9976 77.2481C67.0731 76.4412 66.3921 75.4516 65.9542 74.2777C65.7113 73.4462 65.7108 72.689 65.9544 72.0041C66.1975 71.3193 66.5865 70.7691 67.1221 70.3535C67.6572 69.9378 68.2892 69.693 69.0184 69.62C69.7481 69.5464 70.4781 69.6808 71.2075 70.0232C72.7645 70.8546 74.1626 71.1478 75.4025 70.9037C76.6438 70.6589 77.7256 70.1085 78.6501 69.253C79.5741 68.3982 80.3156 67.3096 80.8751 65.9899C81.4342 64.6692 81.8119 63.3002 82.0065 61.8819C82.3952 59.5345 82.6504 57.1633 82.7725 54.7672C82.8941 52.3706 82.9544 49.9504 82.9541 47.5061C81.9813 49.1192 80.8025 50.7451 79.4159 52.3838C78.0302 54.021 76.51 55.3411 74.8554 56.344C73.2017 57.346 71.451 57.8603 69.6025 57.8844C67.7538 57.9093 65.8817 57.1142 63.9843 55.5007ZM107.469 31.7358C107.859 31.4422 108.163 31.21 108.382 31.0389C108.601 30.8683 108.832 30.7334 109.075 30.635C110.534 29.6572 112.164 29.0216 113.964 28.729C115.763 28.4348 117.563 28.4107 119.362 28.6553C121.649 28.9978 123.559 29.6694 125.09 30.6725C126.623 31.6739 127.888 32.8969 128.885 34.3397C129.882 35.7824 130.636 37.3837 131.146 39.144C131.657 40.9044 132.058 42.7133 132.351 44.5717C132.642 46.4789 132.8 48.3488 132.825 50.1834C132.848 52.0163 132.593 53.4467 132.058 54.4738C131.183 56.1364 130.076 57.2483 128.739 57.8107C127.401 58.3731 126.1 58.4952 124.835 58.1777C123.571 57.8602 122.5 57.1634 121.624 56.0869C120.75 55.0118 120.36 53.6665 120.457 52.053C120.506 50.6351 120.457 48.9966 120.311 47.1392C120.165 45.2809 119.874 43.5323 119.436 41.8945C118.998 40.2567 118.377 38.9235 117.575 37.897C116.773 36.87 115.739 36.4547 114.474 36.6505C113.405 36.8451 112.468 37.6162 111.665 38.9604C110.863 40.3052 110.194 41.8945 109.658 43.7282C109.124 45.5619 108.698 47.4444 108.381 49.3762C108.066 51.3077 107.883 52.9338 107.835 54.2538C107.738 55.7205 107.263 56.7972 106.412 57.4809C105.56 58.1655 104.6 58.5076 103.53 58.5079C102.509 58.5077 101.621 58.1904 100.867 57.5544C100.112 56.9186 99.6143 55.9165 99.371 54.5469C99.1278 53.2754 98.994 51.6742 98.9696 49.7424C98.9452 47.8112 98.9825 45.8183 99.0789 43.765C99.1764 41.7113 99.3219 39.743 99.5169 37.8604C99.7112 35.9782 99.9059 34.4498 100.101 33.2766C100.198 32.4451 100.465 31.7236 100.904 31.1124C101.341 30.5008 101.973 30.0731 102.8 29.8288C104.454 29.2419 105.865 29.6337 107.032 31.0025C107.129 31.1002 107.202 31.2225 107.251 31.369C107.3 31.5158 107.373 31.6381 107.469 31.7358ZM148.402 47.5059C148.159 48.7284 148.183 49.7917 148.475 50.6961C148.767 51.6007 149.229 52.273 149.861 52.713C150.494 53.1535 151.272 53.3365 152.196 53.2636C153.12 53.19 154.118 52.762 155.187 51.9801C155.722 51.5886 156.246 51.1851 156.756 50.7698C157.267 50.3534 157.79 49.9501 158.325 49.5597C158.568 49.3641 158.799 49.1682 159.018 48.9724C159.237 48.7766 159.468 48.5808 159.711 48.3862C160.587 47.8481 161.451 47.7987 162.302 48.2388C163.152 48.6794 163.627 49.4614 163.724 50.5862C163.724 50.9281 163.699 51.2705 163.652 51.6126C163.602 51.9553 163.505 52.2734 163.36 52.5666C162.435 54.5228 161.304 56.2587 159.967 57.7743C158.63 59.2903 156.915 60.4394 154.823 61.2217C152.585 62.0038 150.421 62.1141 148.329 61.5515C146.238 60.9887 144.267 59.926 142.419 58.3611C140.717 56.6985 139.416 54.8037 138.516 52.6768C137.616 50.5496 137.068 48.3612 136.874 46.1125C136.679 43.8626 136.801 41.613 137.239 39.3636C137.676 37.1142 138.333 35.0121 139.209 33.0556C139.987 31.3449 140.972 29.9142 142.164 28.7646C143.355 27.6164 144.645 26.7479 146.031 26.1618C147.417 25.5744 148.864 25.2563 150.372 25.2081C151.879 25.159 153.364 25.3788 154.823 25.8675C156.768 26.4549 158.362 27.3958 159.602 28.6917C160.842 29.9875 161.657 31.7356 162.046 33.9359C162.24 35.403 162.156 36.8945 161.791 38.4104C161.426 39.9263 160.83 41.3318 160.004 42.6281C159.176 43.924 158.155 45.0364 156.939 45.9653C155.722 46.8944 154.385 47.4817 152.925 47.7254C152.099 47.9213 151.309 47.9702 150.554 47.8723C149.8 47.7746 149.084 47.6521 148.402 47.5059ZM156.209 37.0901C156.55 35.672 156.343 34.6575 155.589 34.0459C154.835 33.435 153.911 33.1781 152.816 33.2766C151.722 33.3739 150.676 33.7652 149.679 34.4496C148.682 35.1345 148.135 36.0389 148.037 37.1635C147.94 38.3862 148.244 39.2658 148.95 39.8036C149.655 40.3419 150.494 40.5985 151.466 40.5736C152.439 40.5495 153.4 40.2314 154.348 39.6212C155.297 39.0097 155.917 38.1653 156.209 37.0901ZM178.609 47.5053C178.366 48.7285 178.389 49.7914 178.682 50.6963C178.973 51.6009 179.436 52.2732 180.068 52.713C180.7 53.1535 181.478 53.3362 182.403 53.2633C183.326 53.19 184.325 52.7621 185.394 51.9801C185.929 51.5886 186.453 51.1852 186.962 50.7696C187.474 50.3534 187.997 49.9502 188.531 49.5597C188.775 49.3642 189.006 49.1678 189.224 48.9726C189.443 48.7769 189.675 48.581 189.918 48.3856C190.793 47.8481 191.657 47.7987 192.508 48.239C193.359 48.6794 193.833 49.4614 193.931 50.5865C193.931 50.9281 193.906 51.2699 193.858 51.6126C193.809 51.9553 193.712 52.2734 193.566 52.5666C192.642 54.5228 191.511 56.2587 190.174 57.7744C188.836 59.2901 187.121 60.4391 185.029 61.222C182.792 62.004 180.628 62.1142 178.536 61.5517C176.444 60.989 174.474 59.9263 172.625 58.3613C170.924 56.6985 169.623 54.8037 168.723 52.677C167.822 50.5495 167.275 48.3609 167.081 46.1125C166.886 43.8628 167.008 41.613 167.446 39.3639C167.883 37.1143 168.54 35.0121 169.415 33.0558C170.193 31.3451 171.178 29.9142 172.371 28.7648C173.562 27.6164 174.851 26.7481 176.238 26.1615C177.624 25.5746 179.07 25.2561 180.578 25.2078C182.087 25.1585 183.57 25.3789 185.029 25.8676C186.975 26.4549 188.568 27.3961 189.808 28.6917C191.049 29.9878 191.864 31.7356 192.252 33.9361C192.447 35.403 192.362 36.8945 191.998 38.4104C191.632 39.9261 191.037 41.332 190.21 42.6277C189.383 43.9238 188.362 45.0364 187.145 45.9655C185.929 46.8944 184.591 47.4816 183.132 47.7256C182.305 47.9211 181.515 47.9702 180.761 47.8725C180.007 47.7746 179.29 47.6521 178.609 47.5053ZM186.415 37.0899C186.756 35.6716 186.549 34.6577 185.795 34.0461C185.041 33.4349 184.117 33.1779 183.023 33.276C181.929 33.3739 180.883 33.7649 179.886 34.4497C178.888 35.1347 178.341 36.0389 178.244 37.1635C178.147 38.3862 178.45 39.2659 179.156 39.8038C179.861 40.3419 180.7 40.5985 181.673 40.5736C182.646 40.5495 183.607 40.2314 184.555 39.6209C185.503 39.0097 186.124 38.1653 186.415 37.0899ZM226.691 37.6034C225.67 39.2655 224.66 40.9407 223.663 42.6278C222.666 44.315 221.657 46.0139 220.635 47.7254C220.441 48.0679 220.234 48.4101 220.015 48.7528C219.797 49.0945 219.565 49.4369 219.322 49.7795C218.592 50.8063 217.741 51.3315 216.768 51.3567C215.795 51.3808 214.944 50.8547 214.214 49.7794C213.339 48.6059 212.585 47.2364 211.952 45.6719C211.661 44.9869 211.369 44.3024 211.077 43.6182C210.785 42.9338 210.517 42.2492 210.275 41.5645C209.253 39.2178 208.609 38.1168 208.341 38.2634C208.074 38.4106 207.94 39.7555 207.94 42.298C207.891 45.3292 207.989 48.3491 208.231 51.3566C208.475 54.3634 208.936 57.3589 209.617 60.3415C209.763 60.7812 209.91 61.2218 210.056 61.6617C210.202 62.1014 210.372 62.542 210.566 62.982C210.907 64.4006 210.749 65.5489 210.092 66.429C209.435 67.31 208.572 67.8837 207.502 68.1529C206.432 68.4221 205.301 68.398 204.109 68.0797C202.918 67.7618 202.005 67.0898 201.373 66.0625C200.205 64.4981 199.27 62.4566 198.564 59.9379C197.859 57.42 197.372 54.6694 197.104 51.6863C196.837 48.7034 196.752 45.6107 196.849 42.4077C196.947 39.205 197.226 36.161 197.688 33.2762C198.151 30.3913 198.758 27.7869 199.512 25.4641C200.267 23.1418 201.154 21.3448 202.175 20.0732C202.759 19.3887 203.428 18.8996 204.182 18.6066C204.936 18.3131 205.69 18.2278 206.444 18.3495C207.198 18.4719 207.903 18.7647 208.56 19.23C209.216 19.6946 209.74 20.3421 210.128 21.1733C210.372 21.7114 210.566 22.2738 210.712 22.8607C210.858 23.4474 211.004 24.034 211.15 24.6209C211.831 27.4082 212.573 30.1951 213.375 32.9822C214.178 35.7701 215.066 38.5326 216.039 41.2717C216.184 41.565 216.318 41.8816 216.44 42.2239C216.561 42.5662 216.744 42.9823 216.987 43.4712C217.23 43.0802 217.437 42.7381 217.607 42.4449C217.777 42.1512 217.911 41.8577 218.009 41.5647C219.614 38.1905 221.414 34.9748 223.408 31.919C225.402 28.8634 227.542 25.8673 229.829 22.9342C230.996 21.4183 232.2 20.159 233.44 19.1566C234.681 18.1535 235.86 17.5795 236.979 17.4326C238.098 17.286 239.119 17.6645 240.044 18.5699C240.968 19.4744 241.721 21.0506 242.305 23.3006C242.889 25.6966 243.314 28.447 243.582 31.5523C243.85 34.6577 243.995 37.9093 244.02 41.3076C244.044 44.7057 243.983 48.1533 243.838 51.6494C243.692 55.1463 243.497 58.4833 243.254 61.6617C243.059 63.9596 242.342 65.683 241.101 66.8324C239.861 67.9818 238.535 68.5806 237.125 68.6294C235.714 68.6789 234.425 68.1646 233.258 67.0895C232.091 66.0135 231.532 64.3753 231.58 62.1744C231.678 57.9209 231.872 53.6918 232.164 49.4859C232.455 45.2806 232.552 41.4175 232.455 37.8969C232.358 35.7943 232.225 34.2658 232.054 33.3124C231.884 32.3587 231.591 31.9069 231.178 31.9558C230.765 32.0043 230.193 32.5181 229.463 33.4963C228.734 34.4739 227.809 35.8433 226.691 37.6034ZM259.816 32.8358C260.06 32.4928 260.254 32.1759 260.401 31.882C260.547 31.5887 260.741 31.3195 260.984 31.0759C262.006 29.5102 263.319 28.1412 264.924 26.968C266.53 25.7941 268.171 25.0244 269.849 24.6574C271.528 24.29 273.108 24.4008 274.591 24.9881C276.075 25.5745 277.231 26.8211 278.057 28.7283C278.787 30.4884 279.115 32.3715 279.043 34.3762C278.969 36.3816 278.653 38.3983 278.094 40.4269C277.534 42.4569 276.817 44.4244 275.941 46.3318C275.066 48.2384 274.215 49.9258 273.388 51.3924C272.853 52.2732 272.281 53.2383 271.673 54.2898C271.065 55.3411 270.396 56.3315 269.666 57.2605C268.937 58.19 268.134 59.0211 267.259 59.7545C266.384 60.488 265.435 60.9769 264.413 61.2219C263.295 61.5639 262.212 61.6003 261.167 61.3315C260.12 61.0622 259.086 60.6839 258.066 60.1947C257.579 59.9499 257.129 59.6689 256.715 59.3517C256.303 59.0332 255.901 58.6794 255.512 58.2873C253.907 56.7712 252.435 54.9744 251.097 52.8965C249.76 50.8182 248.678 48.63 247.851 46.3319C247.024 44.0338 246.477 41.7233 246.209 39.4002C245.941 37.078 246.075 34.8897 246.61 32.8359C246.951 31.5645 247.473 30.4641 248.178 29.535C248.884 28.6061 249.918 27.9702 251.28 27.6284C252.594 27.2367 253.785 27.298 254.855 27.8114C255.925 28.3248 256.899 29.0709 257.773 30.0486C258.163 30.4401 258.503 30.8676 258.795 31.332C259.087 31.7965 259.427 32.2976 259.816 32.8358ZM257.409 53.1537C258.381 54.1312 259.342 54.8039 260.291 55.1701C261.239 55.5369 262.127 55.3048 262.954 54.4731C263.1 54.3751 263.246 54.2284 263.392 54.0331C263.538 53.8379 263.659 53.6916 263.756 53.5932C265.653 51.0995 267.307 48.3861 268.718 45.4516C270.128 42.518 271.101 39.5108 271.636 36.4296C271.928 35.0601 271.892 34.034 271.528 33.3494C271.162 32.6649 270.652 32.261 269.995 32.1386C269.338 32.0167 268.621 32.1639 267.842 32.5795C267.065 32.9949 266.359 33.5936 265.726 34.3766C265.045 35.2562 264.486 36.1974 264.049 37.2005C263.61 38.2021 263.343 39.315 263.246 40.5377C263.197 41.6126 263.015 42.4568 262.699 43.0679C262.382 43.6785 261.835 44.0825 261.057 44.2778C259.647 44.6202 258.454 43.8384 257.482 41.9313C257.433 41.8336 257.397 41.7354 257.372 41.6377C257.348 41.5393 257.311 41.4422 257.263 41.3446L255.731 38.2632C254.611 35.9167 253.688 34.547 252.958 34.1556C252.228 33.7652 251.79 34.3767 251.645 35.9899C251.401 39.1683 251.766 42.249 252.739 45.2321C253.712 48.2144 255.269 50.8546 257.409 53.1537ZM259.087 12.299C259.087 10.7825 259.744 9.87813 261.057 9.58409C261.641 9.48638 262.175 9.59654 262.661 9.91453C263.149 10.2326 263.513 10.7338 263.756 11.4184C264.681 14.3033 264.657 17.3354 263.683 20.5135C263.489 21.2464 263.112 21.7483 262.553 22.0167C261.994 22.2857 261.422 22.3715 260.838 22.274C259.622 21.9804 259.087 21.0508 259.233 19.4868C259.379 18.2145 259.391 16.9931 259.269 15.8194C259.148 14.6455 259.087 13.4721 259.087 12.299ZM269.521 20.7331C268.888 21.4181 268.061 21.6135 267.04 21.3198C266.116 20.88 265.726 20.0976 265.872 18.9728C266.018 18.0443 266.189 17.1027 266.384 16.1486C266.578 15.1958 266.772 14.23 266.967 13.2512C267.356 11.6872 268.207 10.9774 269.52 11.1254C270.688 11.2716 271.369 12.0296 271.564 13.3986C271.613 13.8385 271.6 14.4133 271.527 15.1221C271.454 15.8312 271.308 16.5526 271.089 17.286C270.87 18.02 270.627 18.704 270.36 19.34C270.093 19.9753 269.813 20.4404 269.521 20.7331ZM278.495 17.3596C277.911 18.7776 277.206 20.2193 276.379 21.6868C276.038 22.2734 275.625 22.6279 275.139 22.7503C274.652 22.8725 274.142 22.8116 273.607 22.5666C273.12 22.3227 272.792 21.9309 272.622 21.3933C272.452 20.8557 272.488 20.3178 272.731 19.7796C273.509 18.215 274.336 16.7726 275.212 15.4521C275.504 15.061 275.868 14.804 276.306 14.6818C276.744 14.5594 277.158 14.5964 277.546 14.7923C278.131 15.0362 278.471 15.4159 278.568 15.9288C278.665 16.4426 278.641 16.9193 278.495 17.3596ZM292.212 47.5058C291.969 48.728 291.993 49.7913 292.285 50.6962C292.577 51.6004 293.039 52.2732 293.671 52.7129C294.303 53.1537 295.081 53.3366 296.006 53.2631C296.93 53.1898 297.927 52.7617 298.997 51.9795C299.532 51.5885 300.055 51.1848 300.566 50.7694C301.077 50.3537 301.6 49.9499 302.134 49.5593C302.378 49.3637 302.609 49.1682 302.828 48.9725C303.047 48.7767 303.278 48.5806 303.521 48.3861C304.396 47.8481 305.26 47.7988 306.111 48.2385C306.962 48.6791 307.436 49.4614 307.534 50.5863C307.534 50.9281 307.509 51.2703 307.461 51.6127C307.412 51.955 307.315 52.2728 307.169 52.5666C306.245 54.5225 305.114 56.2584 303.777 57.774C302.439 59.2899 300.725 60.439 298.632 61.2214C296.395 62.0039 294.23 62.1145 292.139 61.5511C290.047 60.9893 288.077 59.9257 286.229 58.3608C284.527 56.6985 283.225 54.8039 282.326 52.6764C281.425 50.5493 280.878 48.3612 280.684 46.1126C280.489 43.8625 280.611 41.6127 281.048 39.3639C281.486 37.1139 282.143 35.0118 283.018 33.0556C283.797 31.3446 284.781 29.9143 285.974 28.7644C287.165 27.6158 288.455 26.7477 289.84 26.1616C291.227 25.5741 292.674 25.2561 294.182 25.2077C295.689 25.1591 297.173 25.3785 298.632 25.8671C300.578 26.4544 302.171 27.3956 303.412 28.6916C304.652 29.9873 305.467 31.7357 305.855 33.9356C306.05 35.4027 305.965 36.8941 305.601 38.41C305.235 39.9261 304.64 41.3316 303.813 42.6278C302.986 43.9235 301.965 45.0361 300.749 45.9654C299.532 46.894 298.195 47.4814 296.735 47.7255C295.909 47.921 295.118 47.9704 294.364 47.8721C293.61 47.7747 292.893 47.6524 292.212 47.5058ZM300.019 37.0898C300.359 35.6717 300.153 34.6576 299.398 34.0464C298.645 33.4348 297.721 33.1777 296.626 33.2761C295.532 33.3737 294.486 33.7649 293.488 34.4499C292.492 35.1344 291.944 36.0392 291.847 37.1634C291.75 38.3861 292.054 39.2658 292.759 39.8039C293.465 40.3419 294.303 40.599 295.276 40.5737C296.249 40.5495 297.209 40.2314 298.158 39.6206C299.107 39.0097 299.727 38.1654 300.019 37.0898Z"></path>
<path fill="#05B5CC" d="M36.7244 37.6043C35.7028 39.2668 34.6934 40.942 33.6966 42.6288C32.6992 44.3161 31.6904 46.015 30.6688 47.7265C30.4742 48.0689 30.2672 48.4113 30.0485 48.7535C29.8299 49.0959 29.5983 49.438 29.3554 49.7804C28.6255 50.8074 27.7746 51.3326 26.8013 51.3575C25.8286 51.3817 24.9776 50.8558 24.2477 49.7804C23.3719 48.6069 22.6187 47.2377 21.9858 45.6726C21.6942 44.988 21.4024 44.3034 21.1107 43.6194C20.8186 42.9348 20.5507 42.2502 20.3081 41.5656C19.2865 39.2184 18.6424 38.1181 18.3746 38.2646C18.107 38.4114 17.9733 39.7563 17.9733 42.2985C17.9244 45.3302 18.0221 48.35 18.2648 51.3575C18.5083 54.3643 18.97 57.3598 19.6512 60.3425C19.7968 60.7823 19.9433 61.2229 20.0893 61.6628C20.2351 62.1026 20.405 62.543 20.5996 62.9829C20.9402 64.4014 20.7823 65.5499 20.1253 66.4304C19.469 67.3106 18.6056 67.8849 17.5349 68.1539C16.4653 68.4229 15.3339 68.3989 14.1426 68.0807C12.951 67.7626 12.0384 67.0907 11.4063 66.0637C10.2389 64.4988 9.3029 62.4577 8.59716 59.939C7.89204 57.4211 7.40568 54.6704 7.13807 51.6871C6.87045 48.7043 6.78557 45.6114 6.88248 42.4089C6.9802 39.2063 7.2599 36.1617 7.72154 33.2773C8.18378 30.3921 8.7918 27.7879 9.54585 25.4651C10.2998 23.1429 11.1875 21.3459 12.2091 20.0741C12.7924 19.3895 13.4614 18.9006 14.2154 18.6073C14.9694 18.314 15.7233 18.2287 16.4775 18.3504C17.2314 18.4728 17.9363 18.766 18.5934 19.2307C19.2496 19.6956 19.773 20.3431 20.1621 21.1743C20.405 21.7124 20.5996 22.2747 20.7456 22.8617C20.8913 23.4482 21.0371 24.0352 21.1837 24.6218C21.8647 27.4093 22.606 30.1963 23.4087 32.9832C24.2115 35.7709 25.0994 38.5336 26.0722 41.2723C26.218 41.5656 26.3517 41.8829 26.4735 42.2252C26.5946 42.5676 26.7772 42.9831 27.0207 43.4721C27.2635 43.0813 27.4703 42.7391 27.6409 42.4458C27.8109 42.1519 27.9445 41.8587 28.0423 41.5656C29.6471 38.1915 31.4467 34.976 33.4411 31.92C35.4352 28.8641 37.5754 25.8685 39.8621 22.935C41.0295 21.4191 42.233 20.1603 43.4733 19.1575C44.7136 18.1548 45.8939 17.5803 47.0124 17.4338C48.131 17.2871 49.1524 17.6658 50.0771 18.5711C51.0009 19.4756 51.7548 21.0518 52.3388 23.3015C52.9222 25.6977 53.3478 28.4485 53.6152 31.5536C53.8829 34.6587 54.0288 37.9103 54.0528 41.3087C54.0776 44.7069 54.0167 48.1543 53.871 51.6507C53.725 55.1474 53.5304 58.4843 53.2869 61.6628C53.092 63.9607 52.375 65.6845 51.1347 66.8338C49.8943 67.9831 48.569 68.5816 47.1582 68.6308C45.7473 68.6798 44.4588 68.1661 43.2913 67.0907C42.1239 66.0146 41.5647 64.3764 41.6128 62.1758C41.7105 57.9221 41.9051 53.6926 42.1969 49.4872C42.4886 45.2819 42.5855 41.4188 42.4886 37.8982C42.3915 35.7953 42.258 34.2672 42.0871 33.3136C41.9172 32.3599 41.6248 31.9079 41.2115 31.9565C40.7981 32.0056 40.2266 32.5193 39.4968 33.4972C38.7677 34.4749 37.8432 35.8443 36.7244 37.6043ZM62.9913 55.5017C61.3375 54.1816 60.1092 52.5312 59.3064 50.5506C58.5043 48.57 57.9932 46.4554 57.7744 44.2058C57.5556 41.9563 57.5798 39.7193 57.8474 37.4947C58.115 35.2699 58.5405 33.2773 59.1246 31.5166C59.3675 30.5878 59.8297 29.7807 60.5108 29.0961C60.9971 28.5581 61.5684 28.1673 62.2253 27.9225C62.8823 27.6778 63.5507 27.5801 64.2317 27.6292C64.9129 27.6778 65.5448 27.8735 66.1289 28.2157C66.7123 28.5581 67.1745 29.047 67.5151 29.6833C67.9045 30.2205 68.184 30.8318 68.3539 31.5166C68.5246 32.2012 68.6583 32.8858 68.7555 33.5704C68.9012 34.9882 69.011 36.6386 69.0839 38.5218C69.1567 40.4039 69.2418 42.2011 69.3395 43.9127C69.4364 45.5261 69.692 46.9196 70.1054 48.0931C70.5188 49.2666 71.1023 49.9392 71.8561 50.1108C72.6101 50.2816 73.5227 49.8417 74.5926 48.7899C75.6628 47.7386 76.903 45.7951 78.3133 42.959C79.5296 40.612 80.4782 38.2036 81.1592 35.734C81.8404 33.2644 82.7153 30.5387 83.7857 27.5561C84.2232 26.5291 84.8433 25.7954 85.6462 25.3555C86.449 24.9149 87.2758 24.72 88.1269 24.7684C88.9784 24.8175 89.7805 25.0986 90.5345 25.6124C91.2885 26.1255 91.8116 26.773 92.1034 27.5561C92.3469 28.5829 92.5777 29.5972 92.7965 30.6C93.0158 31.6019 93.1738 32.641 93.2708 33.717C93.6601 36.798 93.8428 39.8902 93.8181 42.9952C93.794 46.1003 93.7572 49.2181 93.7089 52.3475C93.6601 54.6455 93.5263 56.9314 93.3076 59.2053C93.0888 61.479 92.7114 63.7651 92.1762 66.0637C91.69 67.922 91.0088 69.6578 90.1339 71.2711C89.2581 72.8853 88.1997 74.315 86.9594 75.5619C85.7192 76.8094 84.3091 77.8237 82.7281 78.6065C81.1473 79.3886 79.4077 79.8776 77.5112 80.0732C76.295 80.1708 75.0426 80.1466 73.7537 80C72.4645 79.8532 71.248 79.5594 70.1054 79.1195C68.9621 78.6797 67.9285 78.0563 67.0045 77.2492C66.0802 76.4422 65.399 75.4523 64.9615 74.2788C64.7181 73.4474 64.7181 72.6896 64.9615 72.0048C65.2046 71.3202 65.5937 70.7701 66.1289 70.3544C66.6641 69.9389 67.2963 69.6941 68.0256 69.6207C68.7554 69.5474 69.4853 69.682 70.2146 70.0242C71.7712 70.8555 73.1695 71.1488 74.4096 70.9047C75.6508 70.6599 76.7325 70.1097 77.657 69.2543C78.581 68.3989 79.3228 67.3106 79.8822 65.9905C80.4414 64.6702 80.8188 63.301 81.0136 61.8827C81.402 59.5356 81.6576 57.1642 81.7795 54.768C81.9011 52.3717 81.9615 49.9513 81.9615 47.5068C80.9887 49.1199 79.8092 50.7462 78.4231 52.3844C77.0369 54.0221 75.5168 55.3423 73.8625 56.345C72.2088 57.3471 70.4583 57.8609 68.6095 57.8852C66.7611 57.9101 64.8886 57.1151 62.9913 55.5017ZM106.477 31.7365C106.866 31.4432 107.17 31.2112 107.389 31.0398C107.608 30.869 107.839 30.7343 108.082 30.6361C109.541 29.6582 111.171 29.0228 112.971 28.7296C114.771 28.4356 116.57 28.4115 118.369 28.6562C120.656 28.9986 122.565 29.6704 124.097 30.6731C125.63 31.6753 126.895 32.8979 127.891 34.3405C128.889 35.7831 129.643 37.3844 130.153 39.1451C130.664 40.905 131.065 42.7141 131.357 44.5724C131.649 46.4797 131.807 48.35 131.832 50.1839C131.856 52.0173 131.6 53.4477 131.065 54.4747C130.19 56.1372 129.083 57.2495 127.746 57.8118C126.408 58.3739 125.107 58.4964 123.842 58.1791C122.578 57.8609 121.507 57.1642 120.631 56.0881C119.756 55.0128 119.367 53.6676 119.464 52.0542C119.513 50.6359 119.464 48.9976 119.318 47.14C119.172 45.2819 118.881 43.5333 118.443 41.8957C118.005 40.2574 117.385 38.9244 116.582 37.8982C115.78 36.8712 114.746 36.4556 113.481 36.6513C112.411 36.8463 111.475 37.617 110.672 38.9614C109.87 40.3065 109.201 41.8957 108.666 43.7289C108.131 45.5631 107.705 47.4455 107.389 49.377C107.073 51.3083 106.89 52.9347 106.842 54.2547C106.744 55.7216 106.27 56.7977 105.419 57.4816C104.568 58.1662 103.607 58.5086 102.537 58.5086C101.516 58.5086 100.628 58.1912 99.8738 57.555C99.1198 56.9194 98.6214 55.9173 98.3781 54.5481C98.135 53.2763 98.0012 51.675 97.9766 49.7435C97.9524 47.8119 97.9892 45.8192 98.0861 43.766C98.1832 41.7121 98.329 39.7436 98.5236 37.8612C98.7183 35.9788 98.9131 34.4509 99.1077 33.2773C99.2047 32.4459 99.4723 31.7244 99.9106 31.113C100.348 30.5017 100.98 30.074 101.807 29.8298C103.461 29.2427 104.872 29.6342 106.039 31.0034C106.136 31.1008 106.209 31.2233 106.258 31.3698C106.307 31.5166 106.38 31.6389 106.477 31.7365ZM147.409 47.5068C147.166 48.7294 147.19 49.7926 147.482 50.6971C147.774 51.6016 148.236 52.2741 148.868 52.7139C149.501 53.1546 150.279 53.3375 151.203 53.2642C152.127 53.1908 153.124 52.7631 154.194 51.981C154.729 51.5895 155.253 51.1861 155.763 50.7705C156.274 50.3547 156.797 49.9513 157.332 49.5605C157.575 49.3649 157.806 49.169 158.025 48.9734C158.244 48.7777 158.475 48.582 158.718 48.387C159.594 47.8489 160.458 47.7998 161.308 48.2396C162.159 48.6803 162.634 49.4623 162.731 50.5875C162.731 50.9292 162.706 51.2714 162.658 51.6138C162.61 51.956 162.513 52.2741 162.367 52.5674C161.442 54.5238 160.312 56.2597 158.974 57.7754C157.636 59.2914 155.922 60.4401 153.83 61.2229C151.593 62.005 149.428 62.1153 147.336 61.5524C145.245 60.9901 143.274 59.9269 141.426 58.362C139.724 56.6995 138.423 54.805 137.523 52.6777C136.622 50.5506 136.075 48.3621 135.881 46.1132C135.686 43.8636 135.808 41.6139 136.246 39.365C136.683 37.1153 137.34 35.013 138.216 33.0566C138.994 31.3458 139.979 29.9153 141.171 28.7658C142.362 27.6172 143.652 26.749 145.038 26.1626C146.424 25.5755 147.871 25.2573 149.379 25.2089C150.887 25.1599 152.371 25.3796 153.83 25.8685C155.775 26.4557 157.369 27.3966 158.609 28.6927C159.849 29.9885 160.664 31.7365 161.053 33.9369C161.248 35.4038 161.162 36.8954 160.798 38.4114C160.433 39.9272 159.837 41.3328 159.01 42.6288C158.183 43.9248 157.162 45.0371 155.946 45.9665C154.729 46.8953 153.392 47.4824 151.932 47.7265C151.106 47.9223 150.315 47.9714 149.561 47.8732C148.808 47.7756 148.09 47.6533 147.409 47.5068ZM155.216 37.0911C155.556 35.6728 155.35 34.6587 154.596 34.0473C153.842 33.436 152.918 33.1791 151.823 33.2773C150.729 33.3748 149.683 33.7661 148.686 34.4509C147.689 35.1355 147.142 36.04 147.044 37.1645C146.947 38.3871 147.251 39.2668 147.957 39.8049C148.662 40.3429 149.501 40.5998 150.473 40.5748C151.446 40.5507 152.407 40.2326 153.355 39.6219C154.304 39.0105 154.924 38.1665 155.216 37.0911ZM177.616 47.5068C177.372 48.7294 177.396 49.7926 177.689 50.6971C177.98 51.6016 178.443 52.2741 179.075 52.7139C179.707 53.1546 180.485 53.3375 181.41 53.2642C182.334 53.1908 183.331 52.7631 184.401 51.981C184.936 51.5895 185.459 51.1861 185.97 50.7705C186.481 50.3547 187.003 49.9513 187.538 49.5605C187.782 49.3649 188.013 49.169 188.232 48.9734C188.45 48.7777 188.682 48.582 188.925 48.387C189.8 47.8489 190.664 47.7998 191.515 48.2396C192.366 48.6803 192.84 49.4623 192.938 50.5875C192.938 50.9292 192.913 51.2714 192.865 51.6138C192.816 51.956 192.719 52.2741 192.573 52.5674C191.649 54.5238 190.518 56.2597 189.18 57.7754C187.843 59.2914 186.128 60.4401 184.036 61.2229C181.799 62.005 179.634 62.1153 177.543 61.5524C175.451 60.9901 173.481 59.9269 171.632 58.362C169.93 56.6995 168.629 54.805 167.729 52.6777C166.829 50.5506 166.282 48.3621 166.088 46.1132C165.893 43.8636 166.015 41.6139 166.452 39.365C166.89 37.1153 167.547 35.013 168.422 33.0566C169.2 31.3458 170.185 29.9153 171.377 28.7658C172.569 27.6172 173.858 26.749 175.244 26.1626C176.63 25.5755 178.077 25.2573 179.585 25.2089C181.093 25.1599 182.577 25.3796 184.036 25.8685C185.982 26.4557 187.575 27.3966 188.815 28.6927C190.056 29.9885 190.871 31.7365 191.259 33.9369C191.454 35.4038 191.369 36.8954 191.004 38.4114C190.639 39.9272 190.044 41.3328 189.217 42.6288C188.39 43.9248 187.369 45.0371 186.152 45.9665C184.936 46.8953 183.599 47.4824 182.139 47.7265C181.312 47.9223 180.522 47.9714 179.768 47.8732C179.014 47.7756 178.297 47.6533 177.616 47.5068ZM185.422 37.0911C185.763 35.6728 185.556 34.6587 184.802 34.0473C184.048 33.436 183.124 33.1791 182.03 33.2773C180.935 33.3748 179.89 33.7661 178.892 34.4509C177.896 35.1355 177.348 36.04 177.251 37.1645C177.154 38.3871 177.457 39.2668 178.163 39.8049C178.868 40.3429 179.707 40.5998 180.68 40.5748C181.652 40.5507 182.613 40.2326 183.562 39.6219C184.51 39.0105 185.131 38.1665 185.422 37.0911ZM225.698 37.6043C224.676 39.2668 223.667 40.942 222.67 42.6288C221.673 44.3161 220.664 46.015 219.642 47.7265C219.448 48.0689 219.241 48.4113 219.022 48.7535C218.803 49.0959 218.572 49.438 218.329 49.7804C217.599 50.8074 216.748 51.3326 215.775 51.3575C214.802 51.3817 213.951 50.8558 213.221 49.7804C212.345 48.6069 211.592 47.2377 210.959 45.6726C210.668 44.988 210.376 44.3034 210.084 43.6194C209.792 42.9348 209.524 42.2502 209.282 41.5656C208.26 39.2184 207.616 38.1181 207.348 38.2646C207.08 38.4114 206.947 39.7563 206.947 42.2985C206.898 45.3302 206.996 48.35 207.238 51.3575C207.482 54.3643 207.943 57.3598 208.624 60.3425C208.77 60.7823 208.917 61.2229 209.063 61.6628C209.209 62.1026 209.379 62.543 209.573 62.9829C209.914 64.4014 209.756 65.5499 209.099 66.4304C208.442 67.3106 207.579 67.8849 206.508 68.1539C205.439 68.4229 204.307 68.3989 203.116 68.0807C201.925 67.7626 201.012 67.0907 200.38 66.0637C199.212 64.4988 198.276 62.4577 197.571 59.939C196.865 57.4211 196.379 54.6704 196.112 51.6871C195.844 48.7043 195.759 45.6114 195.856 42.4089C195.954 39.2063 196.233 36.1617 196.695 33.2773C197.157 30.3921 197.765 27.7879 198.519 25.4651C199.273 23.1429 200.161 21.3459 201.183 20.0741C201.766 19.3895 202.435 18.9006 203.189 18.6073C203.943 18.314 204.697 18.2287 205.451 18.3504C206.205 18.4728 206.91 18.766 207.567 19.2307C208.223 19.6956 208.746 20.3431 209.136 21.1743C209.378 21.7124 209.573 22.2747 209.719 22.8617C209.865 23.4482 210.011 24.0352 210.157 24.6218C210.838 27.4093 211.58 30.1963 212.382 32.9832C213.185 35.7709 214.073 38.5336 215.045 41.2723C215.191 41.5656 215.325 41.8829 215.447 42.2252C215.568 42.5676 215.751 42.9831 215.994 43.4721C216.237 43.0813 216.444 42.7391 216.614 42.4458C216.784 42.1519 216.918 41.8587 217.016 41.5656C218.621 38.1915 220.42 34.976 222.415 31.92C224.409 28.8641 226.549 25.8685 228.835 22.935C230.003 21.4191 231.207 20.1603 232.447 19.1575C233.687 18.1548 234.867 17.5803 235.986 17.4338C237.104 17.2871 238.126 17.6658 239.051 18.5711C239.974 19.4756 240.728 21.0518 241.312 23.3015C241.896 25.6977 242.321 28.4485 242.589 31.5536C242.857 34.6587 243.002 37.9103 243.026 41.3087C243.051 44.7069 242.99 48.1543 242.844 51.6507C242.698 55.1474 242.504 58.4843 242.26 61.6628C242.066 63.9607 241.349 65.6845 240.108 66.8338C238.868 67.9831 237.543 68.5816 236.132 68.6308C234.721 68.6798 233.432 68.1661 232.265 67.0907C231.097 66.0146 230.538 64.3764 230.586 62.1758C230.684 57.9221 230.879 53.6926 231.171 49.4872C231.462 45.2819 231.559 41.4188 231.462 37.8982C231.365 35.7953 231.231 34.2672 231.061 33.3136C230.891 32.3599 230.598 31.9079 230.185 31.9565C229.772 32.0056 229.2 32.5193 228.47 33.4972C227.741 34.4749 226.816 35.8443 225.698 37.6043ZM258.823 32.8367C259.067 32.4943 259.261 32.1769 259.407 31.8831C259.553 31.5898 259.747 31.3208 259.991 31.0767C261.012 29.5117 262.326 28.1425 263.93 26.9689C265.536 25.7954 267.178 25.0252 268.856 24.6588C270.534 24.2915 272.115 24.4019 273.598 24.989C275.082 25.5755 276.237 26.8222 277.064 28.7296C277.793 30.4896 278.122 32.3726 278.049 34.3775C277.976 36.3824 277.66 38.3993 277.1 40.4283C276.541 42.458 275.824 44.4257 274.948 46.3329C274.072 48.2397 273.221 49.927 272.395 51.3939C271.859 52.2741 271.288 53.2399 270.68 54.2912C270.072 55.3423 269.403 56.3328 268.674 57.2617C267.944 58.1912 267.141 59.0224 266.265 59.7555C265.39 60.4892 264.441 60.9781 263.42 61.2229C262.302 61.5653 261.219 61.6015 260.173 61.3325C259.127 61.0635 258.094 60.6848 257.073 60.1959C256.585 59.9511 256.136 59.67 255.722 59.3526C255.309 59.0345 254.908 58.6802 254.518 58.2887C252.913 56.7727 251.442 54.9757 250.104 52.8977C248.767 50.8196 247.684 48.6312 246.858 46.3329C246.031 44.035 245.484 41.7243 245.216 39.4012C244.948 37.0791 245.082 34.8907 245.617 32.8367C245.958 31.5657 246.48 30.4653 247.185 29.536C247.891 28.6072 248.925 27.9716 250.287 27.6292C251.6 27.2379 252.792 27.2992 253.862 27.8122C254.932 28.326 255.905 29.0719 256.78 30.0497C257.17 30.4413 257.51 30.869 257.802 31.3329C258.093 31.7975 258.434 32.2986 258.823 32.8367ZM256.416 53.1546C257.388 54.1325 258.349 54.805 259.298 55.1714C260.246 55.5379 261.134 55.3061 261.961 54.4747C262.107 54.3765 262.253 54.2299 262.399 54.0343C262.544 53.8392 262.666 53.6926 262.763 53.5944C264.66 51.1006 266.314 48.387 267.725 45.4527C269.135 42.5192 270.108 39.5116 270.643 36.4307C270.935 35.0614 270.899 34.0351 270.534 33.3505C270.169 32.6659 269.658 32.2624 269.001 32.1399C268.345 32.0175 267.627 32.1648 266.849 32.5806C266.071 32.9962 265.365 33.5947 264.733 34.3775C264.052 35.2572 263.493 36.1987 263.055 37.2014C262.617 38.2036 262.35 39.3159 262.253 40.5386C262.204 41.6139 262.022 42.458 261.705 43.0692C261.389 43.6799 260.842 44.0835 260.064 44.2792C258.653 44.6216 257.461 43.8393 256.489 41.932C256.44 41.8346 256.404 41.7364 256.379 41.6387C256.355 41.5405 256.319 41.4431 256.27 41.3457L254.738 38.2646C253.618 35.9176 252.695 34.5483 251.965 34.1568C251.235 33.7661 250.797 34.3775 250.652 35.9909C250.408 39.1693 250.773 42.2502 251.746 45.2328C252.719 48.2154 254.276 50.8558 256.416 53.1546ZM258.094 12.2997C258.094 10.7837 258.75 9.87916 260.064 9.58534C260.648 9.48785 261.182 9.59743 261.669 9.91558C262.156 10.2337 262.52 10.7346 262.763 11.4192C263.688 14.3044 263.664 17.3363 262.69 20.5145C262.496 21.2477 262.119 21.7493 261.56 22.0176C261 22.2867 260.428 22.3729 259.845 22.2747C258.629 21.9814 258.094 21.0518 258.24 19.4877C258.386 18.216 258.398 16.9939 258.276 15.8203C258.154 14.6468 258.094 13.4732 258.094 12.2997ZM268.527 20.7344C267.895 21.4191 267.068 21.6149 266.046 21.3209C265.123 20.8812 264.733 20.099 264.879 18.9737C265.025 18.0452 265.195 17.1035 265.39 16.1498C265.585 15.197 265.779 14.2312 265.974 13.2525C266.363 11.6882 267.214 10.9788 268.527 11.1261C269.695 11.2727 270.376 12.0306 270.57 13.3998C270.619 13.8397 270.607 14.4141 270.534 15.1236C270.461 15.8325 270.315 16.5534 270.096 17.2872C269.877 18.0209 269.634 18.7047 269.367 19.341C269.099 19.9765 268.82 20.4414 268.527 20.7344ZM277.502 17.3604C276.918 18.7789 276.213 20.2207 275.386 21.6881C275.045 22.2747 274.632 22.6291 274.146 22.7515C273.659 22.8738 273.149 22.8125 272.613 22.5678C272.127 22.3238 271.799 21.9323 271.629 21.3942C271.458 20.8569 271.495 20.3189 271.738 19.7808C272.517 18.216 273.343 16.7734 274.218 15.4531C274.511 15.0624 274.875 14.8054 275.313 14.6831C275.751 14.5607 276.164 14.5977 276.553 14.7933C277.137 15.0375 277.478 15.4169 277.575 15.9299C277.672 16.4437 277.648 16.9205 277.502 17.3604ZM291.219 47.5068C290.975 48.7294 290.999 49.7926 291.292 50.6971C291.583 51.6016 292.046 52.2741 292.678 52.7139C293.31 53.1546 294.088 53.3375 295.013 53.2642C295.937 53.1908 296.934 52.7631 298.004 51.981C298.539 51.5895 299.062 51.1861 299.573 50.7705C300.084 50.3547 300.606 49.9513 301.141 49.5605C301.385 49.3649 301.616 49.169 301.834 48.9734C302.053 48.7777 302.285 48.582 302.528 48.387C303.403 47.8489 304.267 47.7998 305.118 48.2396C305.969 48.6803 306.443 49.4623 306.541 50.5875C306.541 50.9292 306.516 51.2714 306.468 51.6138C306.419 51.956 306.322 52.2741 306.176 52.5674C305.252 54.5238 304.121 56.2597 302.783 57.7754C301.446 59.2914 299.731 60.4401 297.639 61.2229C295.402 62.005 293.237 62.1153 291.146 61.5524C289.054 60.9901 287.084 59.9269 285.235 58.362C283.533 56.6995 282.232 54.805 281.332 52.6777C280.432 50.5506 279.885 48.3621 279.691 46.1132C279.496 43.8636 279.618 41.6139 280.055 39.365C280.493 37.1153 281.15 35.013 282.025 33.0566C282.803 31.3458 283.788 29.9153 284.98 28.7658C286.172 27.6172 287.461 26.749 288.847 26.1626C290.233 25.5755 291.681 25.2573 293.188 25.2089C294.696 25.1599 296.18 25.3796 297.639 25.8685C299.585 26.4557 301.178 27.3966 302.418 28.6927C303.659 29.9885 304.474 31.7365 304.862 33.9369C305.057 35.4038 304.972 36.8954 304.607 38.4114C304.242 39.9272 303.647 41.3328 302.82 42.6288C301.993 43.9248 300.972 45.0371 299.755 45.9665C298.539 46.8953 297.202 47.4824 295.742 47.7265C294.915 47.9223 294.125 47.9714 293.371 47.8732C292.617 47.7756 291.9 47.6533 291.219 47.5068ZM299.025 37.0911C299.366 35.6728 299.159 34.6587 298.405 34.0473C297.651 33.436 296.727 33.1791 295.633 33.2773C294.538 33.3748 293.493 33.7661 292.495 34.4509C291.499 35.1355 290.951 36.04 290.854 37.1645C290.757 38.3871 291.06 39.2668 291.766 39.8049C292.471 40.3429 293.31 40.5998 294.283 40.5748C295.255 40.5507 296.216 40.2326 297.165 39.6219C298.114 39.0105 298.734 38.1665 299.025 37.0911Z"></path>
</svg>
